<svg id="Layer_1" data-name="Layer 1" xmlns="http://www.w3.org/2000/svg" viewBox="0 0 20 20"><defs><style>.cls-1{fill:#fff;}</style></defs><path class="cls-1" d="M19.2,19.35H1.1V.47H19.2Zm-7.41-7.56a16.4,16.4,0,0,0,2.62-1.61,15.35,15.35,0,0,0,2.21-2,11,11,0,0,0,1-1.35,6.31,6.31,0,0,0,.81-2A4.34,4.34,0,0,0,18.51,3a1.77,1.77,0,0,0-.71-1.19,3,3,0,0,0-2.1-.47,6,6,0,0,0-1.7.5A8.08,8.08,0,0,0,11.59,3.5C11,4.06,10.5,4.63,10,5.2a20.34,20.34,0,0,0-1.9,2.43l-.14.25H8a.92.92,0,0,1,.95.4A.49.49,0,0,1,9,8.49a.85.85,0,0,1-.72.87.82.82,0,0,1-.76-.45l-.13-.19a4.56,4.56,0,0,0-.47.9l.06,0a.55.55,0,0,1,.5.69,1.26,1.26,0,0,1-.27.42.57.57,0,0,1-.69.15l-.19-.08a12.25,12.25,0,0,0-.89,4.1c.72-.38,1.37-.81,2.09-1.11.48-.2.92-.45,1.39-.66.11-.05.15-.09.16-.21a.58.58,0,0,1,.48-.63c.29-.07.4,0,.48.28l0,0,.38-.15c.12-.06.24-.13.37-.18s.14-.1.06-.2L10.79,12a.71.71,0,0,1-.24-.78.79.79,0,0,1,.66-.49.89.89,0,0,1,.77.44.22.22,0,0,1,0,.28ZM3,12.36a4.37,4.37,0,0,0,1.28,3,13.55,13.55,0,0,0,2,1.82.48.48,0,0,0,.17.05c.11,0,.23,0,.34.05a4.7,4.7,0,0,0,1.9.16,4.86,4.86,0,0,0,2.82-1.37c.9-.89,1.77-1.82,2.63-2.75s1.9-2.1,2.83-3.16A14.1,14.1,0,0,0,18,8.92a1.6,1.6,0,0,0,.22-.52c0-.13,0-.19-.17-.17a.9.9,0,0,0-.28.13,3.93,3.93,0,0,0-.38.31c-.53.41-1.07.81-1.58,1.23A17.26,17.26,0,0,1,12.62,12c-1.1.57-2.22,1.09-3.32,1.64L6.83,14.88c-.37.19-.72.39-1.08.6a.62.62,0,0,1-.56,0,.42.42,0,0,1-.31-.38,7.22,7.22,0,0,1,0-1A10.85,10.85,0,0,1,5.3,12,17.49,17.49,0,0,1,6.67,8.75a18,18,0,0,1,2-3A28.15,28.15,0,0,1,11,3.25a3.23,3.23,0,0,0,.36-.45s0-.17,0-.21a.29.29,0,0,0-.22-.06,1.41,1.41,0,0,0-.44.18,13.66,13.66,0,0,0-1.22.94c-.81.73-1.6,1.48-2.37,2.24A38.26,38.26,0,0,0,4.18,9,5,5,0,0,0,3,12.36Zm3,5.3-2.57-2.4c-.13.12-.29.26-.43.41a.39.39,0,0,0,0,.65c.19.2.4.38.6.58l1.28,1.33a.34.34,0,0,0,.56,0Z"/><path d="M11.79,11.79l.2-.35a.22.22,0,0,0,0-.28.89.89,0,0,0-.77-.44.79.79,0,0,0-.66.49.71.71,0,0,0,.24.78l.11.09c.08.1.06.15-.06.2s-.25.12-.37.18l-.38.15,0,0c-.08-.28-.19-.35-.48-.28a.58.58,0,0,0-.48.63c0,.12,0,.16-.16.21-.47.21-.91.46-1.39.66-.72.3-1.37.73-2.09,1.11a12.25,12.25,0,0,1,.89-4.1l.19.08a.57.57,0,0,0,.69-.15,1.26,1.26,0,0,0,.27-.42A.55.55,0,0,0,7,9.64l-.06,0a4.56,4.56,0,0,1,.47-.9l.13.19a.82.82,0,0,0,.76.45A.85.85,0,0,0,9,8.49a.49.49,0,0,0-.08-.21A.92.92,0,0,0,8,7.88H7.92l.14-.25A20.34,20.34,0,0,1,10,5.2c.54-.57,1.08-1.14,1.63-1.7A8.08,8.08,0,0,1,14,1.87a6,6,0,0,1,1.7-.5,3,3,0,0,1,2.1.47A1.77,1.77,0,0,1,18.51,3a4.34,4.34,0,0,1-.08,1.72,6.31,6.31,0,0,1-.81,2,11,11,0,0,1-1,1.35,15.35,15.35,0,0,1-2.21,2A16.4,16.4,0,0,1,11.79,11.79Zm-4.3-.21a1,1,0,0,0,.68.84.9.9,0,0,0,.9-.67,1,1,0,0,0-.78-.95A.78.78,0,0,0,7.49,11.58ZM10.59,10a1,1,0,0,0-.13-.3,2.73,2.73,0,0,0-.34-.34.65.65,0,0,0-.79-.05.8.8,0,0,0-.33.87,1,1,0,0,0,.7.62h0A.92.92,0,0,0,10.59,10Zm.69-.72a.87.87,0,0,0,.77-.71A.51.51,0,0,0,12,8.25a4.88,4.88,0,0,0-.54-.48.26.26,0,0,0-.15,0,.65.65,0,0,0-.69.38.69.69,0,0,0,.05.8C10.82,9.11,11,9.32,11.28,9.31ZM12,7a.92.92,0,0,0,.66.82.83.83,0,0,0,.27,0,.85.85,0,0,0,.49-.38.48.48,0,0,0,0-.66,4,4,0,0,0-.42-.4.37.37,0,0,0-.21-.09A.67.67,0,0,0,12,7ZM6,13v.08c0,.36.19.69.59.72.07,0,.14.09.22.14A.2.2,0,0,0,7,14s.07-.07.1-.11.08-.15.13-.22l.2-.17A.36.36,0,0,0,7.46,13,2.57,2.57,0,0,0,7,12.47a.56.56,0,0,0-.52-.12A.62.62,0,0,0,6,13Zm7.51-4.57a.86.86,0,0,0,.4.68.59.59,0,0,0,.57.12A.72.72,0,0,0,15,8.44a1,1,0,0,0-.67-.67A.67.67,0,0,0,13.52,8.45ZM12,9.91a.83.83,0,0,0,.57.76.77.77,0,0,0,.91-.46.43.43,0,0,0,0-.51,3.18,3.18,0,0,0-.41-.41.45.45,0,0,0-.21-.09A.71.71,0,0,0,12,9.91ZM14.1,4.84a1.65,1.65,0,0,0-.32.08.66.66,0,0,0-.25,1c.12.11.23.23.36.33a.53.53,0,0,0,.28.1.71.71,0,0,0,.7-.49.47.47,0,0,0-.09-.55A3.4,3.4,0,0,0,14.44,5,2.15,2.15,0,0,0,14.1,4.84Zm-5,2.22a.8.8,0,0,0,.74.81.89.89,0,0,0,.76-.78.9.9,0,0,0-.8-.72A.66.66,0,0,0,9.05,7.06ZM12,5.6A.56.56,0,0,0,12,5.4a3.31,3.31,0,0,0-.44-.4.61.61,0,0,0-.93.35.76.76,0,0,0,.23.83.62.62,0,0,0,.73.15A.83.83,0,0,0,12,5.6Zm3.65,2.22a.69.69,0,0,0,.66-.46.56.56,0,0,0-.16-.65l-.26-.23a.63.63,0,0,0-.72,0,.62.62,0,0,0-.28.68,1,1,0,0,0,.67.68Zm-3-4.28a.57.57,0,0,0-.57.31.74.74,0,0,0,.33,1,.64.64,0,0,0,.87-.26.71.71,0,0,0,.13-.41A.87.87,0,0,0,12.66,3.54Zm3.52.73a.87.87,0,0,0-.1-.24,2.37,2.37,0,0,0-.34-.37.58.58,0,0,0-.75,0,.6.6,0,0,0-.13.79,1.74,1.74,0,0,0,.25.29.54.54,0,0,0,.66.14A.68.68,0,0,0,16.18,4.27Zm0,1.34c0,.26.19.43.41.58a.47.47,0,0,0,.43,0,.63.63,0,0,0,.43-.51.61.61,0,0,0-.26-.62A.58.58,0,0,0,16.55,5,.61.61,0,0,0,16.2,5.61Zm-.05-2.73a.67.67,0,0,0,.32.56.51.51,0,0,0,.73-.08.61.61,0,0,0-.34-1A.52.52,0,0,0,16.15,2.88Zm-2-.42a.55.55,0,0,0-.59.54.64.64,0,0,0,.57.57.63.63,0,0,0,.62-.6A.56.56,0,0,0,14.14,2.46Zm3.94,1.65,0,0a.28.28,0,0,0-.39-.29.37.37,0,0,0-.26.38.4.4,0,0,0,.27.39.25.25,0,0,0,.21-.07A2.93,2.93,0,0,0,18.08,4.11ZM15.62,1.78a.39.39,0,0,0-.38.25.25.25,0,0,0,0,.19.34.34,0,0,0,.6-.08A.25.25,0,0,0,15.62,1.78Z"/><path d="M3,12.36A5,5,0,0,1,4.18,9a38.26,38.26,0,0,1,2.9-3.07c.77-.76,1.56-1.51,2.37-2.24a13.66,13.66,0,0,1,1.22-.94,1.41,1.41,0,0,1,.44-.18.29.29,0,0,1,.22.06s0,.16,0,.21a3.23,3.23,0,0,1-.36.45A28.15,28.15,0,0,0,8.69,5.74a18,18,0,0,0-2,3A17.49,17.49,0,0,0,5.3,12a10.85,10.85,0,0,0-.42,2.1,7.22,7.22,0,0,0,0,1,.42.42,0,0,0,.31.38.62.62,0,0,0,.56,0c.36-.21.71-.41,1.08-.6L9.3,13.67c1.1-.55,2.22-1.07,3.32-1.64A17.26,17.26,0,0,0,15.77,9.9c.51-.42,1.05-.82,1.58-1.23a3.93,3.93,0,0,1,.38-.31A.9.9,0,0,1,18,8.23c.13,0,.2,0,.17.17a1.6,1.6,0,0,1-.22.52A14.1,14.1,0,0,1,17,10.14c-.93,1.06-1.87,2.12-2.83,3.16s-1.73,1.86-2.63,2.75a4.86,4.86,0,0,1-2.82,1.37,4.7,4.7,0,0,1-1.9-.16c-.11,0-.23,0-.34-.05a.48.48,0,0,1-.17-.05,13.55,13.55,0,0,1-2-1.82A4.37,4.37,0,0,1,3,12.36Z"/><path d="M6,17.66l-.54.58a.34.34,0,0,1-.56,0L3.6,16.9c-.2-.2-.41-.38-.6-.58a.39.39,0,0,1,0-.65c.14-.15.3-.29.43-.41Z"/><path class="cls-1" d="M7.49,11.58a.78.78,0,0,1,.8-.78,1,1,0,0,1,.78.95.9.9,0,0,1-.9.67A1,1,0,0,1,7.49,11.58Z"/><path class="cls-1" d="M10.59,10a.92.92,0,0,1-.85.8h0a1,1,0,0,1-.7-.62.8.8,0,0,1,.33-.87.65.65,0,0,1,.79.05,2.73,2.73,0,0,1,.34.34A1,1,0,0,1,10.59,10Z"/><path class="cls-1" d="M11.28,9.31c-.29,0-.46-.2-.63-.4a.69.69,0,0,1-.05-.8.65.65,0,0,1,.69-.38.26.26,0,0,1,.15,0,4.88,4.88,0,0,1,.54.48.51.51,0,0,1,.07.35A.87.87,0,0,1,11.28,9.31Z"/><path class="cls-1" d="M12,7a.67.67,0,0,1,.8-.7.37.37,0,0,1,.21.09,4,4,0,0,1,.42.4.48.48,0,0,1,0,.66.85.85,0,0,1-.49.38.83.83,0,0,1-.27,0A.92.92,0,0,1,12,7Z"/><path class="cls-1" d="M6,13a.62.62,0,0,1,.45-.67.56.56,0,0,1,.52.12,2.57,2.57,0,0,1,.48.51.36.36,0,0,1-.07.53l-.2.17c-.05.07-.08.15-.13.22S7,14,7,14a.2.2,0,0,1-.14,0c-.08-.05-.15-.14-.22-.14-.4,0-.57-.36-.59-.72Z"/><path class="cls-1" d="M13.52,8.45a.67.67,0,0,1,.85-.68,1,1,0,0,1,.67.67.72.72,0,0,1-.55.81.59.59,0,0,1-.57-.12A.86.86,0,0,1,13.52,8.45Z"/><path class="cls-1" d="M12,9.91a.71.71,0,0,1,.82-.71.45.45,0,0,1,.21.09,3.18,3.18,0,0,1,.41.41.43.43,0,0,1,0,.51.77.77,0,0,1-.91.46A.83.83,0,0,1,12,9.91Z"/><path class="cls-1" d="M14.1,4.84a2.15,2.15,0,0,1,.34.17,3.4,3.4,0,0,1,.34.32.47.47,0,0,1,.09.55.71.71,0,0,1-.7.49.53.53,0,0,1-.28-.1c-.13-.1-.24-.22-.36-.33a.66.66,0,0,1,.25-1A1.65,1.65,0,0,1,14.1,4.84Z"/><path class="cls-1" d="M9.05,7.06a.66.66,0,0,1,.7-.69.9.9,0,0,1,.8.72.89.89,0,0,1-.76.78A.8.8,0,0,1,9.05,7.06Z"/><path class="cls-1" d="M12,5.6a.83.83,0,0,1-.5.73.62.62,0,0,1-.73-.15.76.76,0,0,1-.23-.83A.61.61,0,0,1,11.51,5a3.31,3.31,0,0,1,.44.4A.56.56,0,0,1,12,5.6Z"/><path class="cls-1" d="M15.69,7.82H15.6a1,1,0,0,1-.67-.68.62.62,0,0,1,.28-.68.63.63,0,0,1,.72,0l.26.23a.56.56,0,0,1,.16.65A.69.69,0,0,1,15.69,7.82Z"/><path class="cls-1" d="M12.66,3.54a.87.87,0,0,1,.76.64.71.71,0,0,1-.13.41.64.64,0,0,1-.87.26.74.74,0,0,1-.33-1A.57.57,0,0,1,12.66,3.54Z"/><path class="cls-1" d="M16.18,4.27a.68.68,0,0,1-.41.61.54.54,0,0,1-.66-.14,1.74,1.74,0,0,1-.25-.29A.6.6,0,0,1,15,3.66a.58.58,0,0,1,.75,0,2.37,2.37,0,0,1,.34.37A.87.87,0,0,1,16.18,4.27Z"/><path class="cls-1" d="M16.2,5.61A.61.61,0,0,1,16.55,5a.58.58,0,0,1,.66.12.61.61,0,0,1,.26.62.63.63,0,0,1-.43.51.47.47,0,0,1-.43,0C16.39,6,16.19,5.87,16.2,5.61Z"/><path class="cls-1" d="M16.15,2.88a.52.52,0,0,1,.71-.5.61.61,0,0,1,.34,1,.51.51,0,0,1-.73.08A.67.67,0,0,1,16.15,2.88Z"/><path class="cls-1" d="M14.14,2.46a.56.56,0,0,1,.6.51.63.63,0,0,1-.62.6A.64.64,0,0,1,13.55,3,.55.55,0,0,1,14.14,2.46Z"/><path class="cls-1" d="M18.08,4.11a2.93,2.93,0,0,1-.21.39.25.25,0,0,1-.21.07.4.4,0,0,1-.27-.39.37.37,0,0,1,.26-.38.28.28,0,0,1,.39.29Z"/><path class="cls-1" d="M15.62,1.78a.25.25,0,0,1,.24.36.34.34,0,0,1-.6.08.25.25,0,0,1,0-.19A.39.39,0,0,1,15.62,1.78Z"/></svg>