<?xml version="1.0" encoding="UTF-8"?>
<svg width="40px" height="40px" viewBox="0 0 40 40" version="1.1" xmlns="http://www.w3.org/2000/svg">
  <g stroke="none" stroke-width="1" fill="none" fill-rule="evenodd">
    <g transform="translate(2, 5)" fill="#FF9800" fill-rule="nonzero">
      <!-- Cow body -->
      <path d="M33,14 C33,21.732 26.732,28 19,28 C11.268,28 5,21.732 5,14 C5,6.268 11.268,0 19,0 C26.732,0 33,6.268 33,14 Z"></path>
      <!-- Left ear -->
      <path d="M6,6 C3,8 1,9 0,10 C-0.5,12 0.5,14 3,13 C4.5,12.5 6,10 6,6 Z"></path>
      <!-- Right ear -->
      <path d="M32,6 C35,8 37,9 38,10 C38.5,12 37.5,14 35,13 C33.5,12.5 32,10 32,6 Z"></path>
      <!-- Snout -->
      <path d="M19,18 C17,18 15,19 15,22 C15,25 17,26 19,26 C21,26 23,25 23,22 C23,19 21,18 19,18 Z"></path>
      <!-- Left nostril -->
      <ellipse fill="#FFFFFF" cx="17" cy="22" rx="1" ry="1"></ellipse>
      <!-- Right nostril -->
      <ellipse fill="#FFFFFF" cx="21" cy="22" rx="1" ry="1"></ellipse>
      <!-- Left eye -->
      <ellipse fill="#FFFFFF" cx="14" cy="10" rx="2" ry="2"></ellipse>
      <ellipse cx="14" cy="10" rx="1" ry="1"></ellipse>
      <!-- Right eye -->
      <ellipse fill="#FFFFFF" cx="24" cy="10" rx="2" ry="2"></ellipse>
      <ellipse cx="24" cy="10" rx="1" ry="1"></ellipse>
      <!-- Spots -->
      <ellipse fill="#FFFFFF" cx="12" cy="16" rx="3" ry="3"></ellipse>
      <ellipse fill="#FFFFFF" cx="26" cy="16" rx="3" ry="3"></ellipse>
      <ellipse fill="#FFFFFF" cx="19" cy="6" rx="4" ry="2"></ellipse>
    </g>
  </g>
</svg>