<svg xmlns="http://www.w3.org/2000/svg" viewBox="0 0 1024 1024"><path d="M 473,722 L 472,723 L 469,723 L 468,724 L 464,724 L 463,725 L 457,725 L 456,726 L 452,726 L 451,727 L 450,727 L 449,728 L 448,728 L 444,732 L 444,737 L 445,738 L 445,739 L 447,741 L 448,741 L 449,742 L 450,742 L 451,743 L 457,743 L 458,744 L 469,744 L 470,745 L 473,745 L 474,746 L 479,746 L 480,747 L 488,747 L 489,746 L 568,746 L 569,745 L 572,745 L 573,744 L 583,744 L 584,745 L 599,745 L 600,744 L 604,744 L 605,743 L 606,743 L 610,739 L 610,738 L 611,737 L 611,731 L 610,730 L 610,728 L 606,724 L 605,724 L 604,723 L 603,723 L 602,722 L 587,722 L 586,723 L 582,723 L 581,724 L 579,724 L 578,725 L 576,725 L 575,724 L 569,724 L 568,723 L 565,723 L 564,722 Z" fill="black" stroke="black" stroke-width="2"/><path d="M 439,389 L 438,390 L 437,390 L 436,391 L 435,391 L 432,394 L 431,394 L 429,396 L 428,396 L 426,398 L 425,398 L 424,399 L 423,399 L 420,402 L 419,402 L 417,404 L 416,404 L 411,409 L 410,409 L 399,420 L 398,420 L 382,436 L 382,437 L 375,444 L 375,445 L 368,452 L 368,453 L 364,457 L 364,458 L 360,462 L 360,463 L 357,466 L 357,467 L 354,470 L 354,471 L 351,474 L 351,475 L 350,476 L 350,477 L 347,480 L 347,481 L 346,482 L 346,483 L 344,485 L 344,486 L 343,487 L 343,488 L 342,489 L 342,490 L 340,492 L 340,493 L 339,494 L 339,495 L 338,496 L 338,497 L 337,498 L 337,499 L 336,500 L 336,502 L 335,503 L 335,504 L 334,505 L 334,506 L 333,507 L 333,509 L 332,510 L 332,511 L 331,512 L 331,514 L 330,515 L 330,517 L 329,518 L 329,520 L 328,521 L 328,524 L 327,525 L 327,528 L 326,529 L 326,533 L 325,534 L 325,539 L 324,540 L 324,547 L 323,548 L 323,596 L 324,597 L 324,605 L 323,606 L 322,605 L 318,605 L 317,604 L 314,604 L 313,603 L 311,603 L 310,602 L 309,602 L 306,599 L 305,599 L 300,594 L 300,593 L 297,590 L 297,589 L 295,587 L 295,586 L 294,585 L 294,584 L 293,583 L 293,582 L 292,581 L 292,580 L 291,579 L 291,577 L 290,576 L 290,573 L 289,572 L 289,569 L 288,568 L 288,559 L 287,558 L 287,534 L 286,533 L 286,531 L 285,530 L 285,529 L 284,528 L 284,527 L 281,524 L 280,524 L 278,522 L 276,522 L 275,521 L 271,521 L 270,522 L 269,522 L 268,523 L 267,523 L 265,525 L 265,526 L 264,527 L 264,528 L 263,529 L 263,534 L 262,535 L 262,539 L 263,540 L 263,552 L 264,553 L 264,563 L 265,564 L 265,569 L 266,570 L 266,573 L 267,574 L 267,577 L 268,578 L 268,580 L 269,581 L 269,584 L 270,585 L 270,587 L 271,588 L 271,589 L 272,590 L 272,591 L 273,592 L 273,593 L 274,594 L 274,595 L 275,596 L 275,597 L 276,598 L 276,599 L 278,601 L 278,602 L 281,605 L 281,606 L 283,608 L 283,609 L 288,614 L 288,615 L 293,620 L 294,620 L 297,623 L 298,623 L 300,625 L 301,625 L 302,626 L 303,626 L 304,627 L 305,627 L 307,629 L 308,629 L 309,630 L 310,630 L 311,631 L 313,631 L 314,632 L 316,632 L 317,633 L 321,633 L 322,634 L 324,634 L 325,635 L 325,661 L 326,662 L 326,673 L 325,674 L 268,674 L 267,675 L 266,675 L 265,676 L 264,676 L 263,677 L 263,678 L 260,681 L 260,682 L 259,683 L 259,690 L 260,691 L 260,692 L 265,697 L 266,697 L 267,698 L 268,698 L 269,699 L 290,699 L 291,698 L 624,698 L 625,697 L 671,697 L 672,698 L 743,698 L 744,699 L 761,699 L 762,698 L 764,698 L 766,696 L 767,696 L 770,693 L 770,692 L 771,691 L 771,690 L 772,689 L 772,684 L 771,683 L 771,682 L 769,680 L 769,679 L 767,677 L 766,677 L 764,675 L 763,675 L 762,674 L 639,674 L 638,673 L 638,540 L 637,539 L 637,510 L 633,510 L 632,511 L 629,511 L 628,512 L 614,512 L 614,673 L 613,674 L 581,674 L 580,673 L 580,588 L 579,587 L 579,578 L 580,577 L 580,572 L 579,571 L 579,569 L 578,568 L 578,567 L 576,565 L 575,565 L 574,564 L 573,564 L 572,563 L 562,563 L 556,569 L 556,587 L 555,588 L 555,673 L 554,674 L 527,674 L 526,673 L 526,571 L 525,570 L 525,567 L 523,565 L 522,565 L 521,564 L 520,564 L 519,563 L 515,563 L 514,562 L 513,562 L 512,563 L 509,563 L 508,564 L 507,564 L 506,565 L 505,565 L 502,568 L 502,674 L 501,675 L 492,675 L 491,674 L 474,674 L 473,675 L 468,675 L 466,673 L 466,571 L 465,570 L 465,568 L 462,565 L 461,565 L 460,564 L 459,564 L 458,563 L 454,563 L 453,562 L 450,562 L 449,563 L 447,563 L 446,564 L 445,564 L 442,567 L 442,569 L 441,570 L 441,665 L 442,666 L 442,673 L 441,674 L 353,674 L 351,672 L 351,632 L 352,631 L 352,630 L 353,629 L 353,628 L 354,627 L 354,626 L 356,624 L 356,623 L 358,621 L 358,620 L 360,618 L 360,617 L 362,615 L 362,614 L 366,610 L 366,609 L 386,589 L 387,589 L 394,582 L 395,582 L 399,578 L 400,578 L 405,573 L 406,573 L 409,570 L 410,570 L 413,567 L 414,567 L 417,564 L 418,564 L 424,558 L 425,558 L 432,551 L 433,551 L 436,548 L 436,547 L 445,538 L 445,537 L 449,533 L 449,532 L 453,528 L 453,527 L 458,522 L 458,521 L 460,519 L 460,518 L 461,517 L 461,515 L 462,514 L 462,513 L 463,512 L 463,511 L 465,509 L 465,508 L 467,506 L 467,505 L 469,503 L 469,502 L 470,501 L 470,500 L 471,499 L 471,497 L 472,496 L 472,494 L 473,493 L 473,492 L 474,491 L 474,490 L 475,489 L 475,488 L 476,487 L 476,484 L 477,483 L 477,481 L 478,480 L 478,477 L 479,476 L 479,474 L 480,473 L 480,470 L 481,469 L 481,466 L 482,465 L 482,461 L 483,460 L 483,445 L 482,444 L 482,443 L 481,443 L 480,442 L 479,442 L 477,440 L 476,440 L 474,438 L 473,438 L 458,423 L 458,422 L 455,419 L 455,418 L 452,415 L 452,414 L 450,412 L 450,411 L 449,410 L 449,409 L 448,408 L 448,407 L 447,406 L 447,405 L 445,403 L 445,402 L 444,401 L 444,400 L 443,399 L 443,398 L 442,397 L 442,395 L 441,394 L 441,392 L 440,391 L 440,389 Z" fill="black" stroke="black" stroke-width="2"/><path d="M 607,337 L 606,338 L 600,338 L 599,339 L 596,339 L 595,340 L 591,340 L 590,341 L 589,341 L 588,342 L 585,342 L 584,343 L 583,343 L 582,344 L 580,344 L 579,345 L 578,345 L 577,346 L 576,346 L 575,347 L 574,347 L 573,348 L 572,348 L 571,349 L 570,349 L 569,350 L 568,350 L 566,352 L 565,352 L 564,353 L 563,353 L 561,355 L 560,355 L 557,358 L 556,358 L 543,371 L 543,372 L 541,374 L 541,375 L 539,377 L 539,378 L 537,380 L 537,381 L 536,382 L 536,383 L 534,385 L 534,387 L 533,388 L 533,389 L 532,390 L 532,391 L 531,392 L 531,393 L 530,394 L 530,396 L 529,397 L 529,399 L 528,400 L 528,403 L 527,404 L 527,411 L 526,412 L 526,423 L 527,424 L 527,432 L 528,433 L 528,437 L 529,438 L 529,440 L 530,441 L 530,442 L 531,443 L 531,445 L 532,446 L 532,447 L 533,448 L 533,449 L 534,450 L 534,452 L 535,453 L 535,454 L 537,456 L 537,457 L 539,459 L 539,460 L 542,463 L 542,464 L 555,477 L 556,477 L 558,479 L 559,479 L 561,481 L 562,481 L 564,483 L 565,483 L 567,485 L 568,485 L 569,486 L 570,486 L 571,487 L 572,487 L 573,488 L 574,488 L 575,489 L 577,489 L 578,490 L 580,490 L 581,491 L 583,491 L 584,492 L 588,492 L 589,493 L 605,493 L 606,494 L 627,494 L 628,493 L 654,493 L 655,492 L 661,492 L 662,491 L 665,491 L 666,490 L 668,490 L 669,489 L 671,489 L 672,488 L 674,488 L 675,487 L 676,487 L 677,486 L 678,486 L 679,485 L 680,485 L 681,484 L 682,484 L 683,483 L 684,483 L 686,481 L 687,481 L 689,479 L 690,479 L 693,476 L 694,476 L 707,463 L 707,462 L 709,460 L 709,459 L 711,457 L 711,456 L 713,454 L 713,453 L 715,451 L 715,450 L 716,449 L 716,448 L 717,447 L 717,446 L 718,445 L 718,443 L 719,442 L 719,440 L 720,439 L 720,437 L 721,436 L 721,433 L 722,432 L 722,428 L 723,427 L 723,422 L 724,421 L 724,406 L 723,405 L 723,400 L 722,399 L 722,395 L 721,394 L 721,392 L 720,391 L 720,389 L 719,388 L 719,386 L 718,385 L 718,384 L 717,383 L 717,382 L 716,381 L 716,380 L 715,379 L 715,378 L 714,377 L 714,376 L 713,375 L 713,374 L 711,372 L 711,371 L 709,369 L 709,368 L 707,366 L 707,365 L 696,354 L 695,354 L 692,351 L 691,351 L 689,349 L 688,349 L 686,347 L 685,347 L 683,345 L 682,345 L 681,344 L 680,344 L 679,343 L 678,343 L 677,342 L 675,342 L 674,341 L 672,341 L 671,340 L 669,340 L 668,339 L 665,339 L 664,338 L 656,338 L 655,337 Z" fill="black" stroke="black" stroke-width="2"/><path d="M 636,293 Z" fill="black" stroke="black" stroke-width="2"/><path d="M 369,221 L 368,222 L 364,222 L 363,223 L 360,223 L 359,224 L 357,224 L 356,225 L 355,225 L 354,226 L 352,226 L 351,227 L 350,227 L 349,228 L 348,228 L 347,229 L 346,229 L 345,230 L 344,230 L 343,231 L 342,231 L 338,235 L 337,235 L 335,237 L 335,238 L 331,242 L 331,243 L 329,245 L 329,246 L 328,247 L 328,249 L 327,250 L 327,251 L 326,252 L 326,257 L 325,258 L 325,266 L 326,267 L 326,271 L 327,272 L 327,274 L 328,275 L 328,276 L 329,277 L 329,278 L 330,279 L 330,280 L 331,281 L 331,282 L 333,284 L 333,285 L 335,287 L 335,288 L 339,292 L 339,293 L 353,307 L 354,307 L 357,310 L 358,310 L 359,311 L 360,311 L 362,313 L 363,313 L 364,314 L 365,314 L 366,315 L 367,315 L 368,316 L 369,316 L 370,317 L 371,317 L 372,318 L 373,318 L 374,319 L 376,319 L 377,320 L 378,320 L 379,321 L 381,321 L 382,322 L 385,322 L 386,323 L 388,323 L 389,324 L 394,324 L 395,325 L 406,325 L 407,326 L 414,326 L 415,325 L 430,325 L 431,324 L 432,324 L 432,310 L 433,309 L 433,305 L 434,304 L 434,300 L 435,299 L 435,296 L 436,295 L 436,292 L 437,291 L 437,289 L 438,288 L 438,285 L 439,284 L 439,282 L 440,281 L 440,280 L 441,279 L 441,278 L 442,277 L 442,276 L 443,275 L 443,274 L 445,272 L 445,271 L 446,270 L 446,269 L 447,268 L 447,267 L 448,266 L 448,265 L 451,262 L 451,261 L 454,258 L 455,258 L 445,248 L 444,248 L 441,245 L 440,245 L 437,242 L 436,242 L 434,240 L 433,240 L 430,237 L 429,237 L 427,235 L 426,235 L 424,233 L 423,233 L 422,232 L 421,232 L 419,230 L 418,230 L 417,229 L 416,229 L 415,228 L 414,228 L 413,227 L 411,227 L 410,226 L 409,226 L 408,225 L 406,225 L 405,224 L 403,224 L 402,223 L 399,223 L 398,222 L 392,222 L 391,221 Z" fill="black" stroke="black" stroke-width="2"/><path d="M 734,220 L 733,221 L 724,221 L 723,222 L 719,222 L 718,223 L 714,223 L 713,224 L 711,224 L 710,225 L 708,225 L 707,226 L 706,226 L 705,227 L 703,227 L 702,228 L 701,228 L 700,229 L 699,229 L 698,230 L 697,230 L 696,231 L 695,231 L 694,232 L 693,232 L 692,233 L 691,233 L 689,235 L 688,235 L 687,236 L 686,236 L 684,238 L 683,238 L 681,240 L 680,240 L 677,243 L 676,243 L 673,246 L 672,246 L 670,248 L 669,248 L 660,257 L 664,261 L 664,262 L 667,265 L 667,266 L 669,268 L 669,269 L 671,271 L 671,272 L 672,273 L 672,274 L 673,275 L 673,276 L 674,277 L 674,278 L 675,279 L 675,280 L 676,281 L 676,282 L 677,283 L 677,284 L 678,285 L 678,287 L 679,288 L 679,290 L 680,291 L 680,294 L 681,295 L 681,297 L 682,298 L 682,302 L 683,303 L 683,306 L 684,307 L 684,310 L 685,311 L 685,318 L 686,319 L 686,324 L 687,324 L 688,325 L 699,325 L 700,326 L 710,326 L 711,325 L 717,325 L 718,324 L 723,324 L 724,323 L 727,323 L 728,322 L 730,322 L 731,321 L 733,321 L 734,320 L 736,320 L 737,319 L 738,319 L 739,318 L 740,318 L 741,317 L 742,317 L 743,316 L 745,316 L 746,315 L 747,315 L 749,313 L 750,313 L 751,312 L 752,312 L 753,311 L 754,311 L 756,309 L 757,309 L 759,307 L 760,307 L 763,304 L 764,304 L 778,290 L 778,289 L 781,286 L 781,285 L 783,283 L 783,282 L 785,280 L 785,279 L 786,278 L 786,277 L 787,276 L 787,275 L 788,274 L 788,273 L 789,272 L 789,270 L 790,269 L 790,266 L 791,265 L 791,255 L 790,254 L 790,251 L 789,250 L 789,249 L 788,248 L 788,247 L 787,246 L 787,245 L 784,242 L 784,241 L 774,231 L 773,231 L 771,229 L 770,229 L 769,228 L 768,228 L 767,227 L 766,227 L 765,226 L 764,226 L 763,225 L 762,225 L 761,224 L 758,224 L 757,223 L 755,223 L 754,222 L 750,222 L 749,221 L 740,221 L 739,220 Z" fill="black" stroke="black" stroke-width="2"/><path d="M 463,196 L 462,197 L 461,197 L 460,198 L 459,198 L 457,200 L 457,201 L 456,202 L 456,203 L 455,204 L 455,207 L 454,208 L 454,221 L 455,222 L 455,226 L 456,227 L 456,230 L 457,231 L 457,233 L 458,234 L 458,235 L 459,236 L 459,238 L 460,239 L 460,240 L 461,241 L 461,242 L 462,243 L 462,244 L 463,245 L 463,246 L 465,248 L 465,249 L 467,251 L 467,252 L 471,256 L 471,259 L 470,260 L 470,261 L 468,263 L 468,264 L 467,265 L 467,266 L 465,268 L 465,269 L 464,270 L 464,271 L 463,272 L 463,273 L 462,274 L 462,275 L 461,276 L 461,277 L 460,278 L 460,280 L 459,281 L 459,282 L 458,283 L 458,284 L 457,285 L 457,286 L 456,287 L 456,289 L 455,290 L 455,291 L 454,292 L 454,294 L 453,295 L 453,297 L 452,298 L 452,301 L 451,302 L 451,305 L 450,306 L 450,311 L 449,312 L 449,318 L 448,319 L 448,329 L 447,330 L 447,339 L 448,340 L 448,351 L 449,352 L 449,359 L 450,360 L 450,364 L 451,365 L 451,368 L 452,369 L 452,372 L 453,373 L 453,376 L 454,377 L 454,379 L 455,380 L 455,381 L 456,382 L 456,384 L 457,385 L 457,386 L 458,387 L 458,388 L 459,389 L 459,390 L 460,391 L 460,392 L 462,394 L 462,395 L 463,396 L 463,397 L 464,398 L 464,399 L 466,401 L 466,402 L 467,403 L 467,404 L 470,407 L 470,408 L 483,421 L 484,421 L 487,424 L 488,424 L 491,427 L 492,427 L 495,430 L 496,430 L 498,432 L 499,432 L 501,434 L 502,434 L 503,435 L 504,435 L 505,436 L 506,436 L 507,437 L 511,437 L 511,436 L 510,435 L 510,430 L 509,429 L 509,409 L 510,408 L 510,402 L 511,401 L 511,397 L 512,396 L 512,394 L 513,393 L 513,391 L 514,390 L 514,388 L 515,387 L 515,386 L 516,385 L 516,383 L 517,382 L 517,381 L 518,380 L 518,378 L 519,377 L 519,376 L 520,375 L 520,374 L 522,372 L 522,371 L 524,369 L 524,368 L 526,366 L 526,365 L 528,363 L 528,362 L 534,356 L 534,355 L 539,350 L 540,350 L 544,346 L 545,346 L 548,343 L 549,343 L 551,341 L 552,341 L 554,339 L 555,339 L 557,337 L 558,337 L 559,336 L 560,336 L 562,334 L 564,334 L 566,332 L 568,332 L 569,331 L 570,331 L 571,330 L 572,330 L 573,329 L 574,329 L 575,328 L 577,328 L 578,327 L 580,327 L 581,326 L 582,326 L 583,325 L 585,325 L 586,324 L 588,324 L 589,323 L 591,323 L 592,322 L 595,322 L 596,321 L 600,321 L 601,320 L 606,320 L 607,319 L 612,319 L 613,318 L 615,318 L 616,317 L 619,317 L 620,316 L 622,316 L 623,315 L 626,315 L 626,312 L 627,311 L 627,310 L 626,309 L 626,306 L 625,305 L 625,302 L 621,298 L 618,298 L 617,297 L 614,297 L 613,296 L 609,296 L 608,295 L 608,294 L 606,292 L 606,291 L 605,290 L 605,289 L 604,288 L 604,287 L 602,285 L 602,284 L 601,283 L 601,282 L 600,281 L 600,280 L 599,279 L 599,278 L 597,276 L 597,275 L 596,274 L 596,272 L 595,271 L 595,270 L 594,269 L 594,268 L 592,266 L 592,265 L 590,263 L 590,262 L 587,259 L 587,258 L 585,256 L 585,255 L 581,251 L 581,250 L 572,241 L 572,240 L 570,238 L 569,238 L 568,237 L 569,236 L 577,236 L 578,237 L 583,237 L 584,238 L 586,238 L 587,239 L 589,239 L 590,240 L 592,240 L 593,241 L 594,241 L 595,242 L 597,242 L 598,243 L 599,243 L 600,244 L 601,244 L 602,245 L 604,245 L 605,246 L 606,246 L 607,247 L 608,247 L 609,248 L 610,248 L 611,249 L 612,249 L 614,251 L 615,251 L 617,253 L 618,253 L 621,256 L 621,257 L 625,261 L 625,262 L 627,264 L 627,265 L 628,266 L 628,268 L 629,269 L 629,270 L 630,271 L 630,273 L 631,274 L 631,276 L 632,277 L 632,278 L 633,279 L 633,280 L 634,281 L 634,283 L 635,284 L 635,286 L 636,287 L 636,288 L 637,289 L 637,291 L 638,292 L 638,293 L 639,294 L 639,295 L 640,296 L 640,298 L 641,299 L 641,301 L 642,302 L 642,303 L 643,304 L 643,306 L 644,307 L 644,309 L 645,310 L 645,311 L 646,312 L 646,314 L 647,315 L 647,317 L 649,319 L 649,320 L 657,320 L 658,321 L 669,321 L 669,314 L 668,313 L 668,308 L 667,307 L 667,303 L 666,302 L 666,299 L 665,298 L 665,296 L 664,295 L 664,293 L 663,292 L 663,291 L 662,290 L 662,288 L 661,287 L 661,286 L 660,285 L 660,283 L 659,282 L 659,281 L 658,280 L 658,279 L 657,278 L 657,277 L 656,276 L 656,274 L 655,273 L 655,272 L 654,271 L 654,270 L 653,269 L 653,268 L 652,267 L 652,266 L 650,264 L 650,263 L 649,262 L 649,261 L 648,260 L 648,259 L 647,258 L 647,257 L 646,256 L 646,255 L 649,252 L 649,251 L 651,249 L 651,248 L 653,246 L 653,245 L 654,244 L 654,243 L 655,242 L 655,241 L 656,240 L 656,239 L 657,238 L 657,237 L 658,236 L 658,234 L 659,233 L 659,231 L 660,230 L 660,228 L 661,227 L 661,222 L 662,221 L 662,207 L 661,206 L 661,204 L 660,203 L 660,202 L 659,201 L 659,200 L 657,198 L 656,198 L 655,197 L 648,197 L 647,198 L 646,198 L 644,200 L 644,201 L 642,203 L 642,204 L 640,206 L 640,207 L 638,209 L 638,210 L 627,221 L 626,221 L 620,227 L 619,227 L 618,228 L 616,228 L 615,227 L 614,227 L 613,226 L 612,226 L 611,225 L 610,225 L 609,224 L 608,224 L 607,223 L 606,223 L 605,222 L 603,222 L 602,221 L 601,221 L 600,220 L 598,220 L 597,219 L 596,219 L 595,218 L 593,218 L 592,217 L 589,217 L 588,216 L 584,216 L 583,215 L 574,215 L 573,214 L 552,214 L 551,215 L 546,215 L 545,216 L 540,216 L 539,217 L 535,217 L 534,218 L 530,218 L 529,219 L 526,219 L 525,220 L 523,220 L 522,221 L 520,221 L 519,222 L 517,222 L 516,223 L 515,223 L 514,224 L 512,224 L 511,225 L 509,225 L 508,226 L 507,226 L 505,228 L 502,228 L 501,227 L 500,227 L 499,226 L 497,226 L 495,224 L 494,224 L 493,223 L 492,223 L 491,222 L 490,222 L 487,219 L 486,219 L 480,213 L 480,212 L 477,209 L 477,208 L 475,206 L 475,205 L 473,203 L 473,202 L 468,197 L 467,197 L 466,196 Z" fill="black" stroke="black" stroke-width="2"/></svg>