<svg id="Layer_1" data-name="Layer 1" xmlns="http://www.w3.org/2000/svg" viewBox="0 0 20 20"><defs><style>.cls-1{fill:#1C1814;}</style></defs><path fill="#D4C9B0" d="M.37,13.32H.79v-.51C.79,10.88.78,9,.78,7c0-.14,0-.28,0-.42,0-.5.24-.79.66-.81H5.67c.15,0,.2-.06.19-.24s0-.58,0-.88.06-.32.28-.32H8.62A.79.79,0,0,1,9.34,5c.05.2.09.41.12.61s.06.16.15.16h4.71c.7,0,1.4,0,2.09,0,.34,0,.54.16.66.52.22.65.46,1.31.68,2s.41,1.3.63,1.95a1.11,1.11,0,0,0,.18.32l.76.92a1.07,1.07,0,0,1,.24.73c0,.87,0,1.73,0,2.59V15c0,.42-.12.54-.47.54l-.86,0c-.11,0-.15.05-.21.17s-.27.51-.41.76a.71.71,0,0,0-.08.19h1.58c.14,0,.26,0,.29.22a.29.29,0,0,1-.23.33,2.47,2.47,0,0,1-.47,0H11.12c-1.51,0-3,0-4.54,0l-3.94,0H1.06c-.14,0-.23-.08-.24-.27A.23.23,0,0,1,1,16.67a4.47,4.47,0,0,1,.52,0c.61,0,1.23,0,1.85,0l.23,0a1.5,1.5,0,0,1-.14-.18c-.13-.25-.27-.49-.39-.76,0-.11-.08-.15-.19-.15L.62,15.5c-.24,0-.25,0-.25-.31V13.32Zm6.37-1.16H12c.15,0,.21-.06.19-.23a.85.85,0,0,1,0-.16l0-5c0-.42,0-.38-.31-.38H1.53c-.15,0-.2.06-.2.25,0,1.75,0,3.5,0,5.25,0,.18,0,.24.19.24Zm11.38,2.69h.7c.13,0,.17-.06.17-.21,0-.87,0-1.73,0-2.59a.35.35,0,0,0-.07-.2c-.16-.22-.34-.4-.48-.63s-.47-.54-.84-.46a.67.67,0,0,1-.2,0c-.27,0-.27,0-.31.3a.6.6,0,0,1-.47.56c-.23,0-.4-.2-.47-.55l0-.25c0-.05,0-.13-.05-.15s-.15-.3-.14-.49c0-.46,0-.93,0-1.39,0-.1,0-.2,0-.31-.19,0-.28,0-.3-.25s0-.48,0-.71V6.46a.69.69,0,0,0-.18,0l-2.59,0c-.13,0-.16.07-.15.21,0,.35,0,.7,0,1,0,2.05,0,4.1,0,6.15v1h1.14s.1-.07.12-.12A14.12,14.12,0,0,1,15.15,12a4.86,4.86,0,0,1,.48-.68.18.18,0,0,1,.21,0s.06.16.05.23a2.23,2.23,0,0,1-.18.45c-.3.68-.62,1.35-.92,2-.11.25-.18.51-.27.76l.05.05c0-.06.11-.11.15-.17a2.18,2.18,0,0,0,.11-.27,2.23,2.23,0,0,1,.78-1.08,1.46,1.46,0,0,1,1.86.27A2,2,0,0,1,18.12,14.85Zm-16.78,0H2.77c.15,0,.21,0,.26-.21A1.72,1.72,0,0,1,5.12,13.2a1.94,1.94,0,0,1,1.32,1.64h5.73s0-.07,0-.1c0-.62,0-1.24,0-1.87,0-.12-.05-.14-.13-.13l-1,0H4.81l-3.23,0s-.09,0-.11,0-.12.09-.12.14C1.34,13.54,1.34,14.18,1.34,14.86Zm4.75,1.77h9.18l-.09-.15c-.14-.26-.3-.51-.42-.78,0-.11-.09-.16-.2-.16H8.4c-.55,0-1.1.06-1.65.11a.27.27,0,0,0-.21.15C6.38,16.06,6.24,16.35,6.09,16.63Zm10.29-.24a1.24,1.24,0,0,0,1.06-1.24,1.21,1.21,0,0,0-1.08-1.29,1.25,1.25,0,0,0-1.06,1.3A1.22,1.22,0,0,0,16.38,16.39ZM5.76,15.19A1.22,1.22,0,0,0,4.7,13.92a1.16,1.16,0,0,0-1,1.23,1.15,1.15,0,0,0,1,1.26A1.18,1.18,0,0,0,5.76,15.19Zm11.1-7.81c-.11-.34-.2-.62-.3-.9,0,0,0-.07,0-.07a1.2,1.2,0,0,0-.58.06c0,.29.09.54.1.79s0,.5,0,.76l.05,0C16.33,7.81,16.38,7.28,16.86,7.38ZM9,5.75a6,6,0,0,0-.24-.66A.25.25,0,0,0,8.53,5c-.21,0-.42,0-.62,0s-.13,0-.13.15a4.51,4.51,0,0,0,0,.52s.05.12.08.12Zm8.86,4.44-.67-1.86v1.86Zm-1.39-.47h0c0,.3,0,.6,0,.9a1,1,0,0,0,.14.28,1,1,0,0,0,.12-.25c0-.62,0-1.23,0-1.85,0-.12-.08-.19-.17-.16s-.09.12-.09.19C16.43,9.13,16.43,9.42,16.43,9.72Zm-10-4h.28V5c-.11,0-.26-.1-.27.12S6.38,5.5,6.38,5.74Zm1,0,0-.83C7.21,5,7.1,5,7.09,5c0,.23,0,.48,0,.73ZM.68,14.33h0c0,.1,0,.2,0,.3s0,.08.07.11.06-.06.06-.09q0-.3,0-.6S.77,14,.74,14s-.06,0-.06.08A2.61,2.61,0,0,0,.68,14.33Zm16.4-6.11c-.06-.31-.13-.38-.25-.31Z"/><path class="cls-1" d="M18.12,14.85a2,2,0,0,0-.65-1.28,1.46,1.46,0,0,0-1.86-.27,2.23,2.23,0,0,0-.78,1.08,2.18,2.18,0,0,1-.11.27c0,.06-.1.11-.15.17l-.05-.05c.09-.25.16-.51.27-.76.3-.67.62-1.34.92-2a2.23,2.23,0,0,0,.18-.45c0-.07,0-.22-.05-.23a.18.18,0,0,0-.21,0,4.86,4.86,0,0,0-.48.68A14.12,14.12,0,0,0,14,14.68c0,.05-.08.12-.12.12H12.69v-1c0-2.05,0-4.1,0-6.15,0-.35,0-.7,0-1,0-.14,0-.21.15-.21l2.59,0a.69.69,0,0,1,.18,0V7.53c0,.23,0,.47,0,.71s.11.28.3.25c0,.11,0,.21,0,.31,0,.46,0,.93,0,1.39,0,.19,0,.38.14.49s0,.1.05.15l0,.25c.07.35.24.55.47.55a.6.6,0,0,0,.47-.56c0-.3,0-.3.31-.3a.67.67,0,0,0,.2,0c.37-.08.62.11.84.46s.32.41.48.63a.35.35,0,0,1,.07.2c0,.86,0,1.72,0,2.59,0,.15,0,.21-.17.21ZM15.46,9h0v-1c0-.36-.27-.73-.56-.74H13.44a.66.66,0,0,0-.53.67c0,.63,0,1.26,0,1.89a.76.76,0,0,0,.67.83l1.33,0c.34,0,.54-.27.54-.67S15.46,9.38,15.46,9Zm3,3.8c-.19,0-.29.11-.3.32s.1.36.29.37a.31.31,0,0,0,.3-.33C18.72,13,18.61,12.85,18.42,12.84Z"/><path class="cls-1" d="M1.34,14.86c0-.68,0-1.32,0-2,0-.05.07-.11.12-.14s.07,0,.11,0l3.23,0h6.25l1,0c.08,0,.13,0,.13.13,0,.63,0,1.25,0,1.87,0,0,0,.07,0,.1H6.44A1.94,1.94,0,0,0,5.12,13.2,1.72,1.72,0,0,0,3,14.65c0,.17-.11.22-.26.21Zm.46-1c0,.11,0,.22.17.23s.25-.1.25-.29-.07-.32-.19-.33S1.81,13.58,1.8,13.83Zm.92,0c0-.16-.1-.3-.22-.3s-.17.13-.17.26.08.3.2.31S2.72,14,2.72,13.79Z"/><path class="cls-1" d="M6.09,16.63c.15-.28.29-.57.45-.83a.27.27,0,0,1,.21-.15c.55-.05,1.1-.11,1.65-.11h6.16c.11,0,.15.05.2.16.12.27.28.52.42.78l.09.15Z"/><path class="cls-1" d="M16.38,16.39a1.22,1.22,0,0,1-1.08-1.23,1.25,1.25,0,0,1,1.06-1.3,1.21,1.21,0,0,1,1.08,1.29A1.24,1.24,0,0,1,16.38,16.39Zm.69-1.25a.77.77,0,0,0-.69-.86.85.85,0,0,0-.72.85.84.84,0,0,0,.72.85A.79.79,0,0,0,17.07,15.14Z"/><path class="cls-1" d="M5.76,15.19A1.18,1.18,0,0,1,4.7,16.41a1.15,1.15,0,0,1-1-1.26,1.16,1.16,0,0,1,1-1.23A1.22,1.22,0,0,1,5.76,15.19Zm-1,.8a.77.77,0,0,0,.7-.81.79.79,0,0,0-.69-.85.8.8,0,0,0-.7.8A.77.77,0,0,0,4.71,16Z"/><path class="cls-1" d="M16.86,7.38c-.48-.1-.53.43-.77.66L16,8c0-.26,0-.51,0-.76s-.06-.5-.1-.79a1.2,1.2,0,0,1,.58-.06s0,0,0,.07C16.66,6.76,16.75,7,16.86,7.38Z"/><path class="cls-1" d="M9,5.75H7.85s-.08-.08-.08-.12a4.51,4.51,0,0,1,0-.52c0-.1,0-.15.13-.15s.41,0,.62,0a.25.25,0,0,1,.19.14A6,6,0,0,1,9,5.75Z"/><path class="cls-1" d="M17.82,10.19h-.67V8.33Z"/><path class="cls-1" d="M16.43,9.72c0-.3,0-.59,0-.89,0-.07,0-.18.09-.19s.17,0,.17.16c0,.62,0,1.23,0,1.85a1,1,0,0,1-.12.25,1,1,0,0,1-.14-.28c0-.3,0-.6,0-.9Z"/><path class="cls-1" d="M6.38,5.74c0-.24,0-.46,0-.67S6.55,5,6.66,5v.79Z"/><path class="cls-1" d="M7.33,5.73l-.24,0c0-.25,0-.5,0-.73,0,0,.12-.09.2-.14Z"/><path class="cls-1" d="M.68,14.33a2.61,2.61,0,0,1,0-.28s0-.05.06-.08.07,0,.07.08q0,.3,0,.6s0,.06-.06.09-.07-.07-.07-.11,0-.2,0-.3Z"/><path class="cls-1" d="M17.08,8.22l-.25-.31C17,7.84,17,7.91,17.08,8.22Z"/><path fill="#D4C9B0" d="M6.71,11.3H4.78a.73.73,0,0,1-.68-.49,1.57,1.57,0,0,1,0-1.46.3.3,0,0,0,0-.37.35.35,0,0,1,0-.48,1.06,1.06,0,0,1,.66-.43c.12,0,.16-.09.13-.23A.57.57,0,0,1,5,7.24a.41.41,0,0,1,.56,0c.14.1.25.11.37,0a3.5,3.5,0,0,1,.39-.38.36.36,0,0,1,.48-.08,1.84,1.84,0,0,1,.41.38c.06.08.11.12.2.09l.19-.07c.32-.14.57,0,.66.4.05.22.12.33.32.36s.21.14.31.22l.15.13c.08.06.17.11.25.18a.49.49,0,0,1,.12.66.31.31,0,0,0,0,.32A1.41,1.41,0,0,1,9,11.23a.8.8,0,0,1-.4.08c-.32,0-.63,0-.94,0H6.71Zm0-.58H8.5c.27,0,.33-.06.28-.39A2.77,2.77,0,0,0,8.25,9.1,1.82,1.82,0,0,0,6,8.39a2.57,2.57,0,0,0-1.38,1.76c-.11.4,0,.57.35.57ZM7,7.67a.38.38,0,0,0-.24-.36s-.14,0-.19.07a.27.27,0,0,0-.13.32Zm-1.72.62.54-.38-.49-.28Zm2.71-.15c0-.21-.09-.52-.21-.52a1.38,1.38,0,0,0-.4.18Zm-3,.5c-.17-.05-.44,0-.44.11a1.1,1.1,0,0,0,.09.38Zm4,.66A1.65,1.65,0,0,0,9,9c0-.05,0-.16-.06-.16a.39.39,0,0,0-.24,0,.35.35,0,0,0,0,.18C8.78,9.08,8.84,9.17,8.91,9.3Zm-.44-.63.06,0,0-.34c-.06,0-.14,0-.16.1S8.45,8.56,8.47,8.67Z"/><path fill="#D4C9B0" d="M15.46,9c0,.34,0,.68,0,1s-.2.66-.54.67l-1.33,0a.76.76,0,0,1-.67-.83c0-.63,0-1.26,0-1.89a.66.66,0,0,1,.53-.67H14.9c.29,0,.56.38.56.74V9ZM14,9h0V8.3c0-.46,0-.45-.39-.44-.14,0-.21.07-.2.24,0,.59,0,1.19,0,1.78,0,.13.05.21.17.22l.21,0c.13,0,.18-.05.18-.2C14,9.61,14,9.3,14,9Zm.48,0h0v.67c0,.5-.09.43.38.45.14,0,.18-.06.17-.23,0-.53,0-1.06,0-1.59s.08-.45-.39-.45c-.1,0-.14,0-.14.17Z"/><path fill="#D4C9B0" d="M18.42,12.84c.19,0,.3.13.29.36a.31.31,0,0,1-.3.33c-.19,0-.29-.14-.29-.37S18.23,12.84,18.42,12.84Z"/><path fill="#D4C9B0" d="M1.8,13.83c0-.25.1-.4.23-.39s.2.15.19.33-.1.3-.25.29S1.79,13.94,1.8,13.83Z"/><path fill="#D4C9B0" d="M2.72,13.79c0,.16-.08.27-.19.27s-.21-.14-.2-.31,0-.26.17-.26S2.72,13.63,2.72,13.79Z"/><path fill="#D4C9B0" d="M17.07,15.14a.79.79,0,0,1-.69.84.84.84,0,0,1-.72-.85.85.85,0,0,1,.72-.85A.77.77,0,0,1,17.07,15.14Zm-.61.25a.68.68,0,0,0,.12-.21.24.24,0,0,0-.19-.27c-.13,0-.2.1-.19.25S16.28,15.38,16.46,15.39Z"/><path fill="#D4C9B0" d="M4.71,16A.77.77,0,0,1,4,15.13a.8.8,0,0,1,.7-.8.79.79,0,0,1,.69.85A.77.77,0,0,1,4.71,16Zm.08-.59c0-.05.13-.13.13-.22a.21.21,0,0,0-.21-.24c-.12,0-.17.1-.17.22S4.61,15.39,4.79,15.4Z"/><path class="cls-1" d="M14,9c0,.31,0,.62,0,.94,0,.15-.05.22-.18.2l-.21,0c-.12,0-.17-.09-.17-.22,0-.59,0-1.19,0-1.78,0-.17.06-.23.2-.24.38,0,.38,0,.39.44V9Z"/><path class="cls-1" d="M14.44,9V8c0-.12,0-.17.14-.17.47,0,.4,0,.39.45s0,1.06,0,1.59c0,.17,0,.23-.17.23-.47,0-.37,0-.38-.45V9Z"/><path class="cls-1" d="M16.46,15.39c-.18,0-.26-.08-.26-.23s.06-.24.19-.25a.24.24,0,0,1,.19.27A.68.68,0,0,1,16.46,15.39Z"/><path class="cls-1" d="M4.79,15.4c-.18,0-.26-.09-.25-.24s0-.22.17-.22a.21.21,0,0,1,.21.24C4.92,15.27,4.83,15.35,4.79,15.4Z"/><path fill="#D4C9B0" d="M6.05,10.18c0,.14-.07.24-.21.23s-.18-.13-.18-.28,0-.24.19-.24S6.06,10,6.05,10.18Z"/><path fill="#D4C9B0" d="M6.72,8.69a.19.19,0,0,1,.19.24.4.4,0,0,1-.21.25c-.09,0-.22-.15-.21-.27S6.61,8.71,6.72,8.69Z"/><path fill="#D4C9B0" d="M5.74,9.12c.18,0,.28.08.27.22s-.11.17-.17.25a.89.89,0,0,1-.21-.26S5.71,9.18,5.74,9.12Z"/><path fill="#D4C9B0" d="M5.43,9.67s.15.13.14.16a3.72,3.72,0,0,1-.19.34c-.07-.08-.16-.15-.18-.25S5.27,9.7,5.43,9.67Z"/></svg>