<svg id="Layer_1" data-name="Layer 1" xmlns="http://www.w3.org/2000/svg" viewBox="0 0 20 20"><defs><style>.cls-1{fill:#1C1814;}</style></defs><path fill="#D4C9B0" d="M17.94,7.53V9.25a1.1,1.1,0,0,1-.29.28c-.28.14-.28.38-.28.64q0,3.14,0,6.26v.29l.55.06v.63H12l-7.61,0H2.7c-.18,0-.33-.08-.35-.28a.37.37,0,0,1,.35-.35h.43c.11,0,.16,0,.16-.17V14.66c0-1.55,0-3.1,0-4.64a.24.24,0,0,0-.16-.26,1.59,1.59,0,0,1-.63-2c.24-.44.51-.87.75-1.32a.62.62,0,0,0,.07-.31c0-.37,0-.74,0-1.11,0-.2.07-.31.29-.31l1.7,0,.3,0c0-.21,0-.39,0-.57,0-.38,0-.75,0-1.13a.57.57,0,0,1,.65-.64h8.08a.71.71,0,0,1,.76.82c0,.36,0,.72,0,1.08v.49h2c.21,0,.32.09.31.32s0,.62,0,.93A2.79,2.79,0,0,0,17.94,7.53ZM12.31,16.7l.12,0h4.14c.17,0,.16-.09.16-.21q0-3.18-.07-6.38c0-.14,0-.2-.19-.21a1.53,1.53,0,0,1-.93-.39l-.29-.27A1.55,1.55,0,0,1,14,9.92a1.45,1.45,0,0,1-1.22-.67,1.77,1.77,0,0,1-1.29.68,1.61,1.61,0,0,1-1.3-.66A1.6,1.6,0,0,1,9,9.94,1.67,1.67,0,0,1,7.66,9.3c-1,.87-1.43.87-2.55,0a2,2,0,0,1-1,.6S4,10,4,10.09c0,.36,0,.73,0,1.1,0,1,0,2,0,3,0,.79,0,1.59,0,2.38,0,.16.05.21.21.21,1.15,0,2.31,0,3.46,0h.81v-.32c0-1.84,0-3.68,0-5.53,0-.21.07-.29.28-.3l2.65,0c.29,0,.58,0,.93,0Zm-6-10.9h7.78c.18,0,.24,0,.24-.23,0-.78,0-1.57,0-2.35,0-.21-.07-.26-.26-.26H6.48c-.18,0-.24,0-.24.22,0,.71,0,1.42,0,2.13C6.29,5.47,6.28,5.62,6.28,5.8ZM9.15,16.73h2.5c0-.1,0-.19,0-.28,0-1.67,0-3.34,0-5,0-.21-.07-.26-.26-.25h-2l-.18,0ZM10.07,8V6.52H8.29a.16.16,0,0,0-.12.09C8.05,7.06,8,7.52,7.83,8Zm.37-1.47c0,.46,0,.9,0,1.33,0,.16.1.16.22.15l1.44,0h.55l-.3-1.45Zm4.37,0c.2.48.37.94.56,1.38,0,0,.12.08.19.08h1.58l.24,0c-.26-.46-.49-.9-.75-1.31a.33.33,0,0,0-.26-.11c-.34,0-.68,0-1,0Zm-9,0H4.05c-.06,0-.13.08-.17.13-.22.36-.43.73-.64,1.09A2.23,2.23,0,0,0,3.15,8H5c.07,0,.16-.09.19-.16.12-.24.22-.5.33-.74S5.68,6.75,5.78,6.56ZM4,5.87c.49,0,1,0,1.44,0,.2,0,.09-.2.12-.31s-.05-.16-.16-.16l-1.13,0c-.29,0-.3,0-.29.31A1.25,1.25,0,0,0,4,5.87ZM12.37,8.6H10.7a.86.86,0,0,0,.78.59A1,1,0,0,0,12.37,8.6Zm-9.29,0A.85.85,0,0,0,4,9.21a.94.94,0,0,0,.72-.59ZM15,5.85H16.4c.21,0,.19-.11.19-.24s0-.22-.19-.22c-.39,0-.77,0-1.16,0-.15,0-.22,0-.2.2ZM8.11,8.6a.91.91,0,0,0,.83.6,1,1,0,0,0,.85-.57l-.1,0Zm7.64,0a.9.9,0,0,0,.93.59.82.82,0,0,0,.64-.59Zm-10.14,0a.88.88,0,0,0,.84.58.85.85,0,0,0,.73-.58Zm7.66,0a.79.79,0,0,0,1.53,0Z"/><path class="cls-1" d=""/><path class="cls-1" d="M17.94,16.78l-.55-.06v-.29q0-3.12,0-6.26c0-.26,0-.5.28-.64a1.1,1.1,0,0,0,.29-.28Z"/><path class="cls-1" d="M12.31,16.7V10.55c-.35,0-.64,0-.93,0l-2.65,0c-.21,0-.28.09-.28.3,0,1.85,0,3.69,0,5.53v.32H7.65c-1.15,0-2.31,0-3.46,0C4,16.75,4,16.7,4,16.54c0-.79,0-1.59,0-2.38,0-1,0-2,0-3,0-.37,0-.74,0-1.1,0-.06,0-.16.07-.17a2,2,0,0,0,1-.6c1.12.85,1.5.85,2.55,0A1.67,1.67,0,0,0,9,9.94a1.6,1.6,0,0,0,1.26-.67,1.61,1.61,0,0,0,1.3.66,1.77,1.77,0,0,0,1.29-.68A1.45,1.45,0,0,0,14,9.92a1.55,1.55,0,0,0,1.23-.64l.29.27a1.53,1.53,0,0,0,.93.39c.15,0,.18.07.19.21q0,3.19.07,6.38c0,.12,0,.21-.16.21H12.43ZM7.57,13.77v-.23c0-.87,0-1.73,0-2.59,0-.31,0-.34-.33-.34H5.08c-.36,0-.37,0-.38.37,0,.73,0,1.46,0,2.2,0,.2,0,.4,0,.61l-.48.06c0,.37,0,.72.09,1.06,0,.14.09.33.2.38a2.84,2.84,0,0,0,.89.26c.55,0,1.11,0,1.66,0,.07,0,.19,0,.2-.06.06-.26.27-.23.45-.26s.22-.08.23-.24,0-.51,0-.77S7.94,13.82,7.57,13.77Zm8.91.12c-.4-.07-.4-.07-.4-.54,0-.77,0-1.54,0-2.31,0-.38-.1-.46-.48-.47-.66,0-1.32,0-2,0-.39,0-.42.05-.43.45,0,.85,0,1.7,0,2.56v.25l-.38,0c0,.42.07.82.12,1.22,0,0,.05.13.08.13a.82.82,0,0,1,.59.25c.05.06.17.06.25.06.6,0,1.2,0,1.79,0a.48.48,0,0,0,.25-.09,3.94,3.94,0,0,1,.4-.26c.13-.05.2-.11.2-.25C16.47,14.57,16.48,14.24,16.48,13.89Z"/><path class="cls-1" d="M9.15,16.73V11.22l.18,0h2c.19,0,.26,0,.26.25,0,1.66,0,3.33,0,5,0,.09,0,.18,0,.28Zm2-4.24a.68.68,0,0,0-.65-.7.79.79,0,0,0-.83.64.9.9,0,0,0,.77.74A.64.64,0,0,0,11.13,12.49Zm-.33,1.7a1.52,1.52,0,0,0,0,.22c0,.27.08.31.34.29s.34-.14.32-.55-.13-.4-.43-.36S10.82,14.07,10.8,14.19Z"/><path class="cls-1" d="M10.07,8H7.83c.12-.48.22-.94.34-1.39a.16.16,0,0,1,.12-.09h1.78Z"/><path class="cls-1" d="M10.44,6.53h1.9L12.64,8h-.55L10.65,8c-.12,0-.22,0-.22-.15C10.44,7.43,10.44,7,10.44,6.53Z"/><path class="cls-1" d="M14.81,6.56h.54c.34,0,.68,0,1,0a.33.33,0,0,1,.26.11c.26.41.49.85.75,1.31l-.24,0H15.56c-.07,0-.17,0-.19-.08C15.18,7.5,15,7,14.81,6.56Z"/><path class="cls-1" d="M5.78,6.56c-.1.19-.19.36-.27.54s-.21.5-.33.74c0,.07-.12.16-.19.16H3.15a2.23,2.23,0,0,1,.09-.23c.21-.36.42-.73.64-1.09,0-.05.11-.13.17-.13Z"/><path class="cls-1" d="M4,5.87a1.25,1.25,0,0,1,0-.15c0-.31,0-.31.29-.31l1.13,0c.11,0,.18,0,.16.16s.08.3-.12.31C5,5.88,4.5,5.87,4,5.87Z"/><path class="cls-1" d="M12.37,8.6a1,1,0,0,1-.89.59.86.86,0,0,1-.78-.59Z"/><path class="cls-1" d="M3.08,8.62h1.6A.94.94,0,0,1,4,9.21.85.85,0,0,1,3.08,8.62Z"/><path class="cls-1" d="M15,5.85V5.61c0-.17.05-.21.2-.2.39,0,.77,0,1.16,0,.17,0,.2.07.19.22s0,.25-.19.24Z"/><path class="cls-1" d="M8.11,8.6H9.69l.1,0a1,1,0,0,1-.85.57A.91.91,0,0,1,8.11,8.6Z"/><path class="cls-1" d="M15.75,8.61h1.57a.82.82,0,0,1-.64.59A.9.9,0,0,1,15.75,8.61Z"/><path class="cls-1" d="M5.61,8.62H7.18a.85.85,0,0,1-.73.58A.88.88,0,0,1,5.61,8.62Z"/><path class="cls-1" d="M13.27,8.59H14.8a.79.79,0,0,1-1.53,0Z"/><path fill="#D4C9B0" d="M7.57,13.77c.37.05.38.05.37.42s0,.51,0,.77-.08.22-.23.24-.39,0-.45.26c0,0-.13.06-.2.06-.55,0-1.11.05-1.66,0a2.84,2.84,0,0,1-.89-.26c-.11,0-.18-.24-.2-.38,0-.34-.06-.69-.09-1.06l.48-.06c0-.21,0-.41,0-.61,0-.74,0-1.47,0-2.2,0-.36,0-.36.38-.37H7.21c.31,0,.33,0,.33.34,0,.86,0,1.72,0,2.59ZM5.3,13.6H6.83s.13-.09.13-.14c0-.72,0-1.44,0-2.15,0-.05-.07-.14-.1-.14H5.3Zm-.39.8c.09.41.09.41.46.42H6.9c.32,0,.38-.08.37-.43Z"/><path fill="#D4C9B0" d="M16.48,13.89c0,.35,0,.68,0,1,0,.14-.07.2-.2.25a3.94,3.94,0,0,0-.4.26.48.48,0,0,1-.25.09c-.59,0-1.19,0-1.79,0-.08,0-.2,0-.25-.06a.82.82,0,0,0-.59-.25s-.08-.09-.08-.13c-.05-.4-.08-.8-.12-1.22l.38,0v-.25c0-.86,0-1.71,0-2.56,0-.4,0-.44.43-.45.65,0,1.31,0,2,0,.38,0,.47.09.48.47,0,.77,0,1.54,0,2.31C16.08,13.82,16.08,13.82,16.48,13.89Zm-1-2.76H14.4c-.62,0-.62,0-.62.62s0,1.13,0,1.7c0,.1,0,.22.15.22h1.38c.16,0,.17-.08.16-.2V11.13Zm-2,3.24c.09.38.13.42.46.43.55,0,1.11,0,1.66,0,.23,0,.23-.14.24-.29s-.12-.16-.23-.16l-1.76,0Z"/><path fill="#D4C9B0" d="M11.13,12.49a.64.64,0,0,1-.71.68.9.9,0,0,1-.77-.74.79.79,0,0,1,.83-.64A.68.68,0,0,1,11.13,12.49Zm-.71.33c.14-.13.3-.2.31-.29s-.14-.19-.27-.19-.26,0-.25.2S10.32,12.69,10.42,12.82Z"/><path fill="#D4C9B0" d="M10.8,14.19c0-.12-.06-.35.23-.4s.42.06.43.36,0,.51-.32.55-.32,0-.34-.29A1.52,1.52,0,0,1,10.8,14.19Z"/><path class="cls-1" d="M5.3,13.6V11.17H6.86s.1.09.1.14c0,.71,0,1.43,0,2.15,0,0-.08.14-.13.14Zm.77-1.17c.33,0,.42-.09.42-.46s-.1-.3-.4-.3-.36.07-.37.25C5.7,12.3,5.79,12.42,6.07,12.43Z"/><path class="cls-1" d="M4.91,14.4H7.27c0,.35,0,.43-.37.43H5.37C5,14.81,5,14.81,4.91,14.4Z"/><path class="cls-1" d="M15.48,11.13v2.34c0,.12,0,.2-.16.2H13.94c-.17,0-.15-.12-.15-.22,0-.57,0-1.13,0-1.7s0-.61.62-.62ZM14.89,13c.18,0,.36.06.39-.18s-.1-.31-.29-.32a3.86,3.86,0,0,0-.68,0c-.07,0-.13.08-.2.12s.09.19.15.22C14.48,12.85,14.71,12.9,14.89,13Zm-.33-1.43h-.2c-.15,0-.27,0-.27.2a.24.24,0,0,0,.25.26,3.62,3.62,0,0,0,.47,0c.12,0,.27,0,.27-.18s-.05-.3-.27-.29Z"/><path class="cls-1" d="M13.52,14.37l.37,0,1.76,0c.11,0,.24,0,.23.16s0,.3-.24.29c-.55,0-1.11,0-1.66,0C13.65,14.79,13.61,14.75,13.52,14.37Z"/><path class="cls-1" d="M10.42,12.82c-.1-.13-.2-.2-.21-.28s.12-.19.25-.2.29,0,.27.19S10.56,12.69,10.42,12.82Z"/><path fill="#D4C9B0" d="M6.07,12.43c-.28,0-.37-.13-.35-.51,0-.18.12-.26.37-.25s.4.08.4.3S6.4,12.44,6.07,12.43Z"/><path fill="#D4C9B0" d="M14.89,13c-.18,0-.41-.1-.63-.17-.06,0-.1-.14-.15-.22s.13-.12.2-.12a3.86,3.86,0,0,1,.68,0c.19,0,.31.1.29.32S15.07,12.9,14.89,13Z"/><path fill="#D4C9B0" d="M14.56,11.52h.25c.22,0,.27.11.27.29s-.15.18-.27.18a3.62,3.62,0,0,1-.47,0,.24.24,0,0,1-.25-.26c0-.17.12-.22.27-.2h.2Z"/></svg>