<?xml version="1.0" encoding="UTF-8"?>
<svg width="40px" height="40px" viewBox="0 0 40 40" version="1.1" xmlns="http://www.w3.org/2000/svg">
  <g stroke="none" stroke-width="1" fill="none" fill-rule="evenodd">
    <g transform="translate(8, 2)" fill="#F44336" fill-rule="nonzero">
      <!-- Stem -->
      <path d="M12,0 C10,0 8,1 8,3 C8,4 8.5,5 9,6 C7,6 4,7 4,10 C4,11.5 5,12 6,12 C5,13 4,14 4,16 C4,20 8,24 8,28 C8,32 12,36 16,36 C20,36 24,32 24,28 C24,24 20,20 20,16 C20,14 19,13 18,12 C19,12 20,11.5 20,10 C20,7 17,6 15,6 C15.5,5 16,4 16,3 C16,1 14,0 12,0 Z"></path>
    </g>
    <!-- Highlight -->
    <path d="M20,8 C18,8 16,9 16,11 C16,12 16.5,13 17,14 C15,14 12,15 12,18 C12,19.5 13,20 14,20 C13,21 12,22 12,24 C12,25.5 12.67,27 13.5,28.5" stroke="#FFFFFF" stroke-width="1.5" stroke-linecap="round"></path>
  </g>
</svg>