<?xml version="1.0" encoding="UTF-8"?>
<svg width="40px" height="40px" viewBox="0 0 40 40" version="1.1" xmlns="http://www.w3.org/2000/svg">
  <g stroke="none" stroke-width="1" fill="none" fill-rule="evenodd">
    <!-- Pepper Body -->
    <path d="M20,7 C16,7 14,9 14,12 C14,14 16,15 16,18 C16,22 15,25 13,29 C12,32 13,35 16,37 C19,39 24,39 27,37 C30,35 31,32 30,29 C28,25 27,22 27,18 C27,15 29,14 29,12 C29,9 27,7 23,7 C23,5 22,3 20,3 C18,3 17,5 17,7 Z" fill="#F44336"></path>
    
    <!-- Stem -->
    <path d="M20,5 C18,5 18,3 20,3 C22,3 22,5 20,5 Z" fill="#4CAF50"></path>
    
    <!-- Highlights and Details -->
    <path d="M16,12 C16,10 18,9 20,9 C22,9 24,10 24,12" stroke="#FFFFFF" stroke-width="1" stroke-linecap="round"></path>
    <path d="M17,16 C18,15 19,15 20,15 C21,15 22,15 23,16" stroke="#FFFFFF" stroke-width="0.8" stroke-linecap="round"></path>
    <path d="M16,22 C17,21 19,21 20,21 C21,21 23,21 24,22" stroke="#FFFFFF" stroke-width="0.8" stroke-linecap="round"></path>
    
    <!-- Sheen highlight -->
    <ellipse fill="#FFFFFF" opacity="0.3" cx="18" cy="17" rx="1.5" ry="3"></ellipse>
  </g>
</svg>