<svg xmlns="http://www.w3.org/2000/svg" viewBox="0 0 1024 1024"><path d="M 600,585 L 599,586 L 597,586 L 595,588 L 594,588 L 593,589 L 593,590 L 591,592 L 591,593 L 590,594 L 590,596 L 589,597 L 589,606 L 590,607 L 590,609 L 592,611 L 592,612 L 593,613 L 594,613 L 596,615 L 598,615 L 599,616 L 606,616 L 607,615 L 610,615 L 611,614 L 612,614 L 613,613 L 614,613 L 617,610 L 618,610 L 620,608 L 620,607 L 622,605 L 622,602 L 623,601 L 623,595 L 622,594 L 622,592 L 620,590 L 620,589 L 619,588 L 618,588 L 616,586 L 614,586 L 613,585 Z" fill="black" stroke="black" stroke-width="2"/><path d="M 683,547 Z" fill="black" stroke="black" stroke-width="2"/><path d="M 681,499 L 680,500 L 678,500 L 676,502 L 675,502 L 670,507 L 670,508 L 668,510 L 668,511 L 667,512 L 667,513 L 666,514 L 666,515 L 665,516 L 665,517 L 664,518 L 664,519 L 663,520 L 663,521 L 662,522 L 662,523 L 661,524 L 661,525 L 660,526 L 660,527 L 659,528 L 659,529 L 658,530 L 658,531 L 657,532 L 657,533 L 654,536 L 654,537 L 652,539 L 652,540 L 633,559 L 632,559 L 628,563 L 628,564 L 626,566 L 626,567 L 624,569 L 624,570 L 623,571 L 623,572 L 622,573 L 622,576 L 624,578 L 624,579 L 629,584 L 630,584 L 631,585 L 633,585 L 634,586 L 638,586 L 639,587 L 640,586 L 644,586 L 645,585 L 646,585 L 648,583 L 649,583 L 653,579 L 653,578 L 655,576 L 656,576 L 656,575 L 660,571 L 660,570 L 667,563 L 667,562 L 671,558 L 671,557 L 672,556 L 673,556 L 673,555 L 678,550 L 678,549 L 680,547 L 680,546 L 682,544 L 682,543 L 684,541 L 684,539 L 685,538 L 685,537 L 686,536 L 686,535 L 688,533 L 688,532 L 690,530 L 690,528 L 691,527 L 691,526 L 692,525 L 692,524 L 693,523 L 693,520 L 694,519 L 694,517 L 695,516 L 695,512 L 696,511 L 696,509 L 695,508 L 695,506 L 694,505 L 694,504 L 690,500 L 686,500 L 685,499 Z" fill="black" stroke="black" stroke-width="2"/><path d="M 399,441 L 398,442 L 395,442 L 394,443 L 393,443 L 391,445 L 390,445 L 385,450 L 384,450 L 382,452 L 382,453 L 379,456 L 379,457 L 378,458 L 378,460 L 377,461 L 377,469 L 378,470 L 378,471 L 383,476 L 384,476 L 385,477 L 393,477 L 394,476 L 396,476 L 397,475 L 399,475 L 400,474 L 401,474 L 402,473 L 403,473 L 404,472 L 405,472 L 407,470 L 408,470 L 411,467 L 411,466 L 413,464 L 413,463 L 414,462 L 414,460 L 415,459 L 415,456 L 414,455 L 414,453 L 413,452 L 413,451 L 407,445 L 406,445 L 405,444 L 404,444 L 402,442 L 400,442 Z" fill="black" stroke="black" stroke-width="2"/><path d="M 710,430 L 709,431 L 708,431 L 707,432 L 706,432 L 705,433 L 704,433 L 703,434 L 702,434 L 702,436 L 701,437 L 700,437 L 700,440 L 701,441 L 701,442 L 702,443 L 702,444 L 703,445 L 706,445 L 707,446 L 712,446 L 713,445 L 717,445 L 718,444 L 720,444 L 720,443 L 721,442 L 723,442 L 723,441 L 724,440 L 724,435 L 723,434 L 723,433 L 722,432 L 721,432 L 720,431 L 719,431 L 718,430 Z" fill="black" stroke="black" stroke-width="2"/><path d="M 431,386 L 429,388 L 428,388 L 424,392 L 424,393 L 422,395 L 422,397 L 421,398 L 421,399 L 420,400 L 420,403 L 419,404 L 419,406 L 418,407 L 418,410 L 417,411 L 417,413 L 416,414 L 416,417 L 415,418 L 415,420 L 414,421 L 414,422 L 413,423 L 413,424 L 411,426 L 411,427 L 409,429 L 409,430 L 408,431 L 408,432 L 407,433 L 407,434 L 410,437 L 411,437 L 413,439 L 419,439 L 420,438 L 422,438 L 423,437 L 425,437 L 426,436 L 427,436 L 428,435 L 429,435 L 437,427 L 437,426 L 441,422 L 441,421 L 443,419 L 443,418 L 444,417 L 444,416 L 445,415 L 445,414 L 446,413 L 446,412 L 447,411 L 447,409 L 448,408 L 448,407 L 449,406 L 449,396 L 448,395 L 448,394 L 447,393 L 447,392 L 443,388 L 442,388 L 441,387 L 439,387 L 438,386 Z" fill="black" stroke="black" stroke-width="2"/><path d="M 713,344 L 712,345 L 711,345 L 709,347 L 708,347 L 705,350 L 705,351 L 704,352 L 704,357 L 703,358 L 703,363 L 704,364 L 704,390 L 703,391 L 703,397 L 704,398 L 704,400 L 706,402 L 707,402 L 708,403 L 710,403 L 711,404 L 718,404 L 719,403 L 722,403 L 723,402 L 724,402 L 725,401 L 726,401 L 729,398 L 729,397 L 730,396 L 730,370 L 729,369 L 729,364 L 728,363 L 728,361 L 729,360 L 729,359 L 728,358 L 728,354 L 727,353 L 727,351 L 726,350 L 726,349 L 723,346 L 722,346 L 721,345 L 720,345 L 719,344 Z" fill="black" stroke="black" stroke-width="2"/><path d="M 633,198 L 632,199 L 627,199 L 626,200 L 623,200 L 622,201 L 620,201 L 619,202 L 617,202 L 616,203 L 615,203 L 614,204 L 612,204 L 611,205 L 610,205 L 609,206 L 608,206 L 607,207 L 606,207 L 605,208 L 604,208 L 603,209 L 602,209 L 600,211 L 599,211 L 597,213 L 596,213 L 591,218 L 590,218 L 583,225 L 583,226 L 578,231 L 578,232 L 576,234 L 576,235 L 574,237 L 574,238 L 572,240 L 572,241 L 571,242 L 571,243 L 570,244 L 570,245 L 569,246 L 569,247 L 568,248 L 568,249 L 567,250 L 567,252 L 566,253 L 566,256 L 565,257 L 564,257 L 563,258 L 558,258 L 557,259 L 555,259 L 554,260 L 552,260 L 551,261 L 549,261 L 548,262 L 547,262 L 546,263 L 545,263 L 544,264 L 543,264 L 542,265 L 541,265 L 540,266 L 539,266 L 538,267 L 537,267 L 536,268 L 535,268 L 534,269 L 533,269 L 532,270 L 531,270 L 529,272 L 528,272 L 527,273 L 526,273 L 523,276 L 522,276 L 518,280 L 517,280 L 510,287 L 510,288 L 504,294 L 504,295 L 501,298 L 501,299 L 499,301 L 499,302 L 497,304 L 497,305 L 495,307 L 495,308 L 494,309 L 494,310 L 493,311 L 493,312 L 492,313 L 492,314 L 491,315 L 491,316 L 490,317 L 490,318 L 489,319 L 489,320 L 488,321 L 488,323 L 487,324 L 487,325 L 486,326 L 486,328 L 485,329 L 485,332 L 484,333 L 484,336 L 483,337 L 483,340 L 482,341 L 482,345 L 481,346 L 481,354 L 480,355 L 480,379 L 479,380 L 479,401 L 478,402 L 478,411 L 477,412 L 477,417 L 476,418 L 476,422 L 475,423 L 475,426 L 474,427 L 474,430 L 473,431 L 473,434 L 472,435 L 472,438 L 471,439 L 471,441 L 470,442 L 470,444 L 469,445 L 469,447 L 468,448 L 468,450 L 467,451 L 467,452 L 466,453 L 466,455 L 465,456 L 465,457 L 464,458 L 464,460 L 463,461 L 463,463 L 462,464 L 462,465 L 461,466 L 461,468 L 460,469 L 460,470 L 459,471 L 459,472 L 458,473 L 458,474 L 457,475 L 457,476 L 456,477 L 456,479 L 455,480 L 455,481 L 454,482 L 454,483 L 453,484 L 453,485 L 452,486 L 452,487 L 450,489 L 450,490 L 449,491 L 449,492 L 448,493 L 448,494 L 446,496 L 446,497 L 445,498 L 445,499 L 444,500 L 444,501 L 442,503 L 442,504 L 440,506 L 440,507 L 438,509 L 438,510 L 436,512 L 436,513 L 434,515 L 434,516 L 432,518 L 432,519 L 429,522 L 429,523 L 426,526 L 426,527 L 422,531 L 422,532 L 416,538 L 416,539 L 381,574 L 380,574 L 374,580 L 373,580 L 369,584 L 368,584 L 364,588 L 363,588 L 361,590 L 360,590 L 357,593 L 356,593 L 354,595 L 353,595 L 351,597 L 350,597 L 348,599 L 347,599 L 345,601 L 344,601 L 342,603 L 341,603 L 339,605 L 338,605 L 337,606 L 336,606 L 335,607 L 334,607 L 332,609 L 331,609 L 330,610 L 329,610 L 327,612 L 326,612 L 325,613 L 324,613 L 322,615 L 320,615 L 318,617 L 317,617 L 316,618 L 315,618 L 314,619 L 313,619 L 312,620 L 311,620 L 310,621 L 309,621 L 308,622 L 307,622 L 306,623 L 305,623 L 304,624 L 303,624 L 302,625 L 301,625 L 300,626 L 299,626 L 295,630 L 294,630 L 292,632 L 292,633 L 290,635 L 290,636 L 289,637 L 289,645 L 290,646 L 290,647 L 291,648 L 291,649 L 297,655 L 298,655 L 299,656 L 300,656 L 301,657 L 303,657 L 304,658 L 307,658 L 308,659 L 313,659 L 314,660 L 337,660 L 338,661 L 371,661 L 372,660 L 379,660 L 380,659 L 386,659 L 387,658 L 393,658 L 394,657 L 401,657 L 402,656 L 407,656 L 408,655 L 411,655 L 412,654 L 416,654 L 417,653 L 419,653 L 420,652 L 423,652 L 424,651 L 427,651 L 428,650 L 430,650 L 431,649 L 433,649 L 434,648 L 437,648 L 438,647 L 439,647 L 440,646 L 442,646 L 443,645 L 445,645 L 446,644 L 448,644 L 449,643 L 450,643 L 451,642 L 453,642 L 454,641 L 456,641 L 457,640 L 459,640 L 460,639 L 461,639 L 462,638 L 463,638 L 464,637 L 465,637 L 466,636 L 468,636 L 469,635 L 470,635 L 471,634 L 472,634 L 473,633 L 474,633 L 475,632 L 477,632 L 478,631 L 479,631 L 480,630 L 481,630 L 482,629 L 483,629 L 484,628 L 485,628 L 486,627 L 487,627 L 488,626 L 489,626 L 490,625 L 491,625 L 493,623 L 494,623 L 495,622 L 496,622 L 497,621 L 498,621 L 500,619 L 501,619 L 502,618 L 503,618 L 505,616 L 506,616 L 507,615 L 508,615 L 510,613 L 511,613 L 512,612 L 513,612 L 514,611 L 515,611 L 517,609 L 518,609 L 519,608 L 520,608 L 522,606 L 523,606 L 525,604 L 526,604 L 527,603 L 528,603 L 530,601 L 531,601 L 534,598 L 535,598 L 537,596 L 538,596 L 541,593 L 542,593 L 545,590 L 546,590 L 549,587 L 550,587 L 553,584 L 554,584 L 557,581 L 558,581 L 561,578 L 562,578 L 568,572 L 569,572 L 577,564 L 578,564 L 598,544 L 598,543 L 601,540 L 602,540 L 602,539 L 613,528 L 613,527 L 619,521 L 619,520 L 621,518 L 621,517 L 625,513 L 625,512 L 628,509 L 628,508 L 629,507 L 629,506 L 631,504 L 631,503 L 634,500 L 634,499 L 636,497 L 636,496 L 639,493 L 639,492 L 641,490 L 641,489 L 642,488 L 642,487 L 644,485 L 644,484 L 645,483 L 645,482 L 646,481 L 646,480 L 647,479 L 647,478 L 648,477 L 648,476 L 649,475 L 649,474 L 650,473 L 650,472 L 651,471 L 651,470 L 652,469 L 652,468 L 653,467 L 653,465 L 654,464 L 654,463 L 655,462 L 655,461 L 656,460 L 656,459 L 657,458 L 657,457 L 658,456 L 658,455 L 659,454 L 659,453 L 660,452 L 660,451 L 661,450 L 661,448 L 662,447 L 662,445 L 663,444 L 663,442 L 664,441 L 664,440 L 665,439 L 665,437 L 666,436 L 666,434 L 667,433 L 667,431 L 668,430 L 668,428 L 669,427 L 669,423 L 670,422 L 670,419 L 671,418 L 671,414 L 672,413 L 672,409 L 673,408 L 673,403 L 674,402 L 674,397 L 675,396 L 675,386 L 676,385 L 676,352 L 675,351 L 675,345 L 674,344 L 674,340 L 673,339 L 673,335 L 672,334 L 672,330 L 671,329 L 671,327 L 670,326 L 670,323 L 669,322 L 669,321 L 668,320 L 668,318 L 667,317 L 667,315 L 666,314 L 666,313 L 665,312 L 665,311 L 664,310 L 664,309 L 663,308 L 663,307 L 662,306 L 662,305 L 661,304 L 661,303 L 659,301 L 659,300 L 657,298 L 657,297 L 654,294 L 654,293 L 648,287 L 648,286 L 647,286 L 636,275 L 635,275 L 632,272 L 631,272 L 629,270 L 628,270 L 626,268 L 625,268 L 623,266 L 622,266 L 621,265 L 620,265 L 619,264 L 618,264 L 617,263 L 616,263 L 615,262 L 614,262 L 613,261 L 611,261 L 610,260 L 608,260 L 607,259 L 604,259 L 603,258 L 599,258 L 598,257 L 600,255 L 600,254 L 601,253 L 601,252 L 603,250 L 603,249 L 604,248 L 604,247 L 607,244 L 607,243 L 610,240 L 611,240 L 614,237 L 615,237 L 616,236 L 617,236 L 619,234 L 620,234 L 621,233 L 623,233 L 624,232 L 626,232 L 627,231 L 630,231 L 631,230 L 650,230 L 651,231 L 651,232 L 653,234 L 653,235 L 658,240 L 659,240 L 661,242 L 663,242 L 664,243 L 672,243 L 673,242 L 675,242 L 676,241 L 678,241 L 679,240 L 680,240 L 681,239 L 682,239 L 684,237 L 685,237 L 685,236 L 687,234 L 687,233 L 688,232 L 688,231 L 689,230 L 689,227 L 690,226 L 690,219 L 689,218 L 689,216 L 688,215 L 688,214 L 687,213 L 687,212 L 685,210 L 685,209 L 683,207 L 683,206 L 682,205 L 681,205 L 678,202 L 677,202 L 676,201 L 675,201 L 674,200 L 673,200 L 672,199 L 670,199 L 669,198 L 661,198 L 660,199 L 655,199 L 654,198 Z" fill="black" stroke="black" stroke-width="2"/></svg>