<svg id="Layer_1" data-name="Layer 1" xmlns="http://www.w3.org/2000/svg" viewBox="0 0 20 20"><defs><style>.cls-1{fill:#fff;}</style></defs><path d="M18.52,7.58V9.47c-.11.1-.19.24-.32.3-.31.16-.31.42-.31.71q0,3.43,0,6.88v.31l.61.06v.7H18c-2,0-3.95,0-5.92,0l-8.36,0H1.78c-.2,0-.37-.08-.38-.3a.38.38,0,0,1,.38-.38,3.77,3.77,0,0,1,.47,0c.13,0,.18-.05.18-.18,0-.7,0-1.41,0-2.11,0-1.7,0-3.4,0-5.1A.25.25,0,0,0,2.24,10a1.75,1.75,0,0,1-.7-2.21c.27-.49.57-1,.84-1.45A.65.65,0,0,0,2.44,6c0-.41,0-.81,0-1.22,0-.22.07-.34.31-.34l1.87,0,.33,0c0-.23,0-.43,0-.63,0-.42,0-.83,0-1.24a.63.63,0,0,1,.72-.7h8.88a.77.77,0,0,1,.83.9c0,.4,0,.8-.05,1.2v.53h2.21c.23,0,.34.1.34.35s0,.68,0,1A2.94,2.94,0,0,0,18.52,7.58ZM12.33,17.65l.13,0H17c.18,0,.17-.1.17-.22q0-3.51-.08-7c0-.15-.05-.22-.21-.23a1.69,1.69,0,0,1-1-.42l-.32-.3a1.69,1.69,0,0,1-1.35.7,1.58,1.58,0,0,1-1.34-.74,1.89,1.89,0,0,1-1.42.75A1.71,1.71,0,0,1,10,9.48a1.73,1.73,0,0,1-1.39.74,1.79,1.79,0,0,1-1.41-.7c-1.15,1-1.58,1-2.81,0a2.3,2.3,0,0,1-1.13.67s-.08.11-.09.17c0,.41,0,.82,0,1.22,0,1.09,0,2.17,0,3.26,0,.87,0,1.74,0,2.61,0,.18.06.23.23.23h4.7v-.34c0-2,0-4,0-6.08,0-.23.07-.32.3-.33l2.91-.06h1Zm-6.61-12h8.54c.19,0,.26,0,.26-.25,0-.87,0-1.73,0-2.59,0-.23-.07-.28-.29-.28H5.93c-.19,0-.26,0-.26.24,0,.78,0,1.56,0,2.34Zm3.15,12H11.6c0-.11,0-.21,0-.31,0-1.83,0-3.66,0-5.49,0-.22-.08-.28-.29-.28H9.06l-.19,0Zm1-9.59V6.46H7.92a.19.19,0,0,0-.14.1L7.41,8.09Zm.4-1.61c0,.51,0,1,0,1.46,0,.17.1.17.24.17l1.59,0h.6l-.33-1.6Zm4.81,0L15.69,8c0,.05.14.09.21.09h1.74l.26,0c-.29-.52-.54-1-.82-1.45a.39.39,0,0,0-.29-.12c-.37,0-.74,0-1.12,0Zm-9.92,0H3.26c-.06,0-.14.08-.18.14-.24.39-.48.79-.71,1.19a1.81,1.81,0,0,0-.1.25h2c.07,0,.16-.1.2-.17.13-.27.24-.55.36-.82S5.05,6.72,5.16,6.51ZM3.21,5.75c.54,0,1.07,0,1.59,0,.22,0,.1-.22.13-.34s0-.17-.17-.17l-1.24,0c-.33,0-.33,0-.32.33C3.2,5.63,3.21,5.68,3.21,5.75Zm9.19,3H10.56a1,1,0,0,0,.86.65A1,1,0,0,0,12.4,8.75Zm-10.21,0a1,1,0,0,0,1,.64A1,1,0,0,0,4,8.78Zm13.14-3c.51,0,1,0,1.5,0,.23,0,.2-.13.21-.27s0-.25-.22-.24c-.42,0-.84,0-1.26,0-.17,0-.25,0-.23.23A2.21,2.21,0,0,1,15.33,5.73Zm-7.61,3a1,1,0,0,0,.91.65,1.06,1.06,0,0,0,.93-.62l-.11,0Zm8.39,0a1,1,0,0,0,1,.64.91.91,0,0,0,.71-.64ZM5,8.77a.94.94,0,0,0,.91.64,1,1,0,0,0,.81-.64Zm8.41,0a.93.93,0,0,0,.93.64,1,1,0,0,0,.75-.64Z"/><path class="cls-1" d="M18.52,7.58a2.94,2.94,0,0,1-.69-1.74c0-.34,0-.68,0-1s-.11-.35-.34-.35H15.27V4c0-.4,0-.8.05-1.2a.77.77,0,0,0-.83-.9H5.61a.63.63,0,0,0-.72.7c0,.41,0,.82,0,1.24,0,.2,0,.4,0,.63l-.33,0-1.87,0c-.24,0-.32.12-.31.34,0,.41,0,.81,0,1.22a.65.65,0,0,1-.06.34c-.27.49-.57,1-.84,1.45A1.75,1.75,0,0,0,2.24,10a.25.25,0,0,1,.17.28c0,1.7,0,3.4,0,5.1,0,.7,0,1.41,0,2.11,0,.13-.05.18-.18.18a3.77,3.77,0,0,0-.47,0,.38.38,0,0,0-.38.38c0,.22.18.3.38.3H3.67l8.36,0c2,0,3.94,0,5.92,0h.57v1.24H.55V.66h18Z"/><path class="cls-1" d="M18.52,17.73l-.61-.06v-.31q0-3.45,0-6.88c0-.29,0-.55.31-.71.13-.06.21-.2.32-.3Z"/><path class="cls-1" d="M12.33,17.65V10.89h-1L8.4,11c-.23,0-.3.1-.3.33,0,2,0,4.05,0,6.08v.34H3.41c-.17,0-.23-.05-.23-.23,0-.87,0-1.74,0-2.61,0-1.09,0-2.17,0-3.26,0-.4,0-.81,0-1.22,0-.06,0-.16.09-.17a2.3,2.3,0,0,0,1.13-.67c1.23.93,1.66.93,2.81,0a1.79,1.79,0,0,0,1.41.7A1.73,1.73,0,0,0,10,9.48a1.71,1.71,0,0,0,1.42.73,1.89,1.89,0,0,0,1.42-.75,1.58,1.58,0,0,0,1.34.74,1.69,1.69,0,0,0,1.35-.7l.32.3a1.69,1.69,0,0,0,1,.42c.16,0,.2.08.21.23q0,3.51.08,7c0,.12,0,.22-.17.22H12.46Zm-5.2-3.22v-.26l0-2.83c0-.35,0-.38-.37-.38H4.39C4,11,4,11,4,11.35c0,.81,0,1.61,0,2.42,0,.22,0,.44,0,.67l-.54.07c0,.4,0,.79.1,1.16,0,.15.1.37.22.42a3.13,3.13,0,0,0,1,.28c.61,0,1.21,0,1.82,0,.08,0,.21,0,.22-.07C6.81,16,7,16,7.23,16s.25-.09.26-.26,0-.57,0-.85S7.53,14.49,7.13,14.43Zm9.78.14c-.44-.09-.43-.09-.44-.6,0-.84,0-1.69,0-2.53,0-.42-.11-.51-.53-.52-.72,0-1.44,0-2.16,0-.43,0-.46.05-.47.49,0,.93,0,1.87,0,2.81v.28l-.42,0c0,.46.08.9.13,1.34,0,0,.06.14.09.14a.92.92,0,0,1,.64.28.47.47,0,0,0,.29.07l2,0a.66.66,0,0,0,.27-.09,4.17,4.17,0,0,1,.44-.29c.14-.06.22-.12.22-.28Z"/><path class="cls-1" d="M8.87,17.68v-6l.19,0H11.3c.21,0,.29.06.29.28,0,1.83,0,3.66,0,5.49,0,.1,0,.2,0,.31ZM11,13a.73.73,0,0,0-.71-.77.87.87,0,0,0-.91.7,1,1,0,0,0,.85.81A.69.69,0,0,0,11,13Zm-.36,1.87v.24c0,.29.09.34.37.31s.38-.15.36-.6-.15-.45-.47-.39S10.69,14.76,10.67,14.9Z"/><path class="cls-1" d="M9.87,8.09H7.41l.37-1.52a.19.19,0,0,1,.14-.1H9.87Z"/><path class="cls-1" d="M10.27,6.48h2.1l.33,1.6h-.6l-1.59,0c-.14,0-.24,0-.24-.17C10.28,7.46,10.27,7,10.27,6.48Z"/><path class="cls-1" d="M15.08,6.51h.59c.38,0,.75,0,1.12,0a.39.39,0,0,1,.29.12c.28.46.53.93.82,1.45l-.26,0H15.9c-.07,0-.19,0-.21-.09Z"/><path class="cls-1" d="M5.16,6.51c-.11.21-.21.4-.3.59s-.23.55-.36.82c0,.07-.13.17-.2.17h-2a1.81,1.81,0,0,1,.1-.25c.23-.4.47-.8.71-1.19,0-.06.12-.14.18-.14Z"/><path class="cls-1" d="M3.21,5.75c0-.07,0-.12,0-.17,0-.33,0-.33.32-.33l1.24,0c.12,0,.19,0,.17.17s.09.33-.13.34C4.28,5.77,3.75,5.75,3.21,5.75Z"/><path class="cls-1" d="M12.4,8.75a1,1,0,0,1-1,.65,1,1,0,0,1-.86-.65Z"/><path class="cls-1" d="M2.19,8.78H4a1,1,0,0,1-.8.64A1,1,0,0,1,2.19,8.78Z"/><path class="cls-1" d="M15.33,5.73a2.21,2.21,0,0,0,0-.26c0-.18.06-.23.23-.23.42,0,.84,0,1.26,0,.19,0,.23.07.22.24s0,.27-.21.27C16.34,5.72,15.84,5.73,15.33,5.73Z"/><path class="cls-1" d="M7.72,8.76H9.45l.11,0a1.06,1.06,0,0,1-.93.62A1,1,0,0,1,7.72,8.76Z"/><path class="cls-1" d="M16.11,8.77h1.73a.91.91,0,0,1-.71.64A1,1,0,0,1,16.11,8.77Z"/><path class="cls-1" d="M5,8.77H6.7a1,1,0,0,1-.81.64A.94.94,0,0,1,5,8.77Z"/><path class="cls-1" d="M13.39,8.74h1.68a1,1,0,0,1-.75.64A.93.93,0,0,1,13.39,8.74Z"/><path d="M7.13,14.43c.4.06.41.06.4.46s0,.56,0,.85S7.4,16,7.23,16s-.42,0-.49.28c0,0-.14.07-.22.07-.61,0-1.21.06-1.82,0a3.13,3.13,0,0,1-1-.28c-.12-.05-.2-.27-.22-.42-.06-.37-.07-.76-.1-1.16l.54-.07c0-.23,0-.45,0-.67,0-.81,0-1.61,0-2.42C4,11,4,11,4.39,11H6.73c.34,0,.36,0,.37.38l0,2.83Zm-2.49-.18H6.32s.13-.1.13-.16c0-.78,0-1.57,0-2.36,0-.05-.08-.14-.12-.14H4.64Zm-.44.87c.1.45.1.46.51.47H6.4c.35,0,.41-.08.4-.47Z"/><path d="M16.91,14.57v1.11c0,.16-.08.22-.22.28a4.17,4.17,0,0,0-.44.29.66.66,0,0,1-.27.09l-2,0a.47.47,0,0,1-.29-.07.92.92,0,0,0-.64-.28s-.09-.09-.09-.14c-.05-.44-.09-.88-.13-1.34l.42,0v-.28c0-.94,0-1.88,0-2.81,0-.44,0-.48.47-.49.72,0,1.44,0,2.16,0,.42,0,.52.1.53.52,0,.84,0,1.69,0,2.53C16.48,14.48,16.47,14.48,16.91,14.57Zm-1.1-3H14.63c-.68,0-.68,0-.68.68s0,1.24,0,1.87c0,.11,0,.24.16.24h1.52c.17,0,.18-.08.18-.22,0-.37,0-.74,0-1.12Zm-2.15,3.56c.1.41.15.46.5.47.61,0,1.23,0,1.84,0,.25,0,.24-.15.25-.32s-.13-.18-.24-.18l-1.94,0Z"/><path d="M11,13a.69.69,0,0,1-.77.74A1,1,0,0,1,9.41,13a.87.87,0,0,1,.91-.7A.73.73,0,0,1,11,13Zm-.77.35c.15-.13.32-.21.34-.31s-.15-.21-.3-.21-.29.05-.27.22S10.15,13.24,10.26,13.38Z"/><path d="M10.67,14.9c0-.14-.06-.4.26-.44s.45,0,.47.39,0,.56-.36.6-.35,0-.37-.31Z"/><path class="cls-1" d="M4.64,14.25V11.57h1.7s.12.09.12.14c0,.79,0,1.58,0,2.36,0,.06-.08.16-.13.16ZM5.48,13c.36,0,.46-.1.46-.5s-.11-.33-.43-.34-.41.08-.42.28C5.08,12.82,5.17,13,5.48,13Z"/><path class="cls-1" d="M4.2,15.12H6.8c0,.39,0,.47-.4.47H4.71C4.3,15.58,4.3,15.57,4.2,15.12Z"/><path class="cls-1" d="M15.81,11.53V13c0,.38,0,.75,0,1.12,0,.14,0,.23-.18.22H14.12c-.18,0-.16-.13-.16-.24,0-.63,0-1.25,0-1.87s0-.67.68-.68Zm-.65,2c.2,0,.4.06.43-.2s-.1-.34-.31-.35a4.7,4.7,0,0,0-.75,0c-.07,0-.14.09-.22.13s.1.21.17.24A6.61,6.61,0,0,0,15.16,13.53ZM14.81,12h0a1.62,1.62,0,0,1-.22,0c-.18,0-.3,0-.3.22a.26.26,0,0,0,.27.29l.52,0c.13,0,.3,0,.3-.2s-.06-.34-.3-.32Z"/><path class="cls-1" d="M13.66,15.09l.41,0,1.94,0c.11,0,.26,0,.24.18s0,.32-.25.32c-.61,0-1.23,0-1.84,0C13.81,15.55,13.76,15.5,13.66,15.09Z"/><path class="cls-1" d="M10.26,13.38c-.11-.14-.22-.21-.23-.3s.13-.21.27-.22.32,0,.3.21S10.41,13.25,10.26,13.38Z"/><path d="M5.48,13c-.31,0-.4-.14-.39-.56,0-.2.13-.29.42-.28s.44.09.43.34S5.84,13,5.48,13Z"/><path d="M15.16,13.53a6.61,6.61,0,0,1-.68-.19c-.07,0-.11-.15-.17-.24s.15-.13.22-.13a4.7,4.7,0,0,1,.75,0c.21,0,.34.11.31.35S15.36,13.48,15.16,13.53Z"/><path d="M14.81,12h.27c.24,0,.29.12.3.32s-.17.19-.3.2l-.52,0a.26.26,0,0,1-.27-.29c0-.19.12-.24.3-.22a1.62,1.62,0,0,0,.22,0Z"/></svg>