<svg id="Layer_1" data-name="Layer 1" xmlns="http://www.w3.org/2000/svg" viewBox="0 0 20 20"><defs><style>.cls-1{fill:#fff;}</style></defs><path d="M18.72,5a2.08,2.08,0,0,1,.24.89A2.23,2.23,0,0,1,18.72,7a1.66,1.66,0,0,1-.94.56.24.24,0,0,0-.23.28c0,.8,0,1.61,0,2.41,0,.17,0,.34,0,.54a1.2,1.2,0,0,1,1.19,0,1.33,1.33,0,0,1,0,1.9,3.25,3.25,0,0,1-.54,0c-.23,0-.29.07-.29.29,0,1.11,0,2.23,0,3.34V17a1.63,1.63,0,0,0,.66,0c.08,0,.14,0,.18,0s.08.44,0,.75l-.53,0a59.15,59.15,0,0,0-6.78,0c-3,.14-6,0-9,0a1.19,1.19,0,0,1-.46-.06.42.42,0,0,1-.22-.29c0-.1.1-.23.19-.32s.15,0,.24,0H3.5c0-.14,0-.22,0-.3,0-1.14,0-2.28,0-3.42,0-.18,0-.43,0-.53s-.34-.06-.52-.06c-.42,0-.65-.16-.73-.71a4,4,0,0,1,0-.77c0-.37.07-.44.44-.45H3.78c0-.15,0-.28,0-.4,0-.74,0-1.48,0-2.22a1.8,1.8,0,0,0,0-.4.23.23,0,0,0-.14-.15,1.49,1.49,0,0,1-1.29-1.1,1.22,1.22,0,0,1,0-1c.5-.81,1-1.61,1.51-2.41a.48.48,0,0,1,.44-.23c.78,0,1.56,0,2.35,0q5.25,0,10.51,0a.63.63,0,0,1,.61.36C18,3.81,18.36,4.38,18.72,5ZM17,12.78l-.18,0H4.4c-.19,0-.24.07-.24.25,0,.9,0,1.79,0,2.69V17H16.46c.55,0,.45,0,.46-.44,0-.94,0-1.88,0-2.82Zm-11.89-2c0-.38,0-.73,0-1.08s.08-.4.4-.42l1.67-.05c.55,0,1.1,0,1.65.05.23,0,.34.13.34.37s0,.56,0,.85,0,.28.26.28h2.4c.18,0,.21-.08.2-.23s0-.53,0-.8c0-.43.08-.5.52-.49H15a2.8,2.8,0,0,1,.5,0,.4.4,0,0,1,.37.45v.54c0,.48-.12.42.45.48.15,0,.23,0,.23-.2,0-1,0-2,0-3a.36.36,0,0,0-.08-.23c-.16-.15-.33-.29-.51-.44a1.7,1.7,0,0,1-1.39.69A1.56,1.56,0,0,1,13.2,6.9a1.67,1.67,0,0,1-2.79,0A1.64,1.64,0,0,1,9,7.65,1.58,1.58,0,0,1,7.7,6.91a1.71,1.71,0,0,1-1.4.74A1.66,1.66,0,0,1,4.94,7c-.16.14-.3.26-.43.39a.41.41,0,0,0-.13.25c0,.91,0,1.81,0,2.72v.43Zm13.19.72H3.13c-.17,0-.32,0-.32.24s.08.28.29.28H18c.19,0,.28-.07.26-.27A2.06,2.06,0,0,1,18.26,11.52ZM13.05,5.4c-.16-.59-.3-1.15-.45-1.71a.26.26,0,0,0-.18-.12H10.5V5.4ZM8,3.63l-.07,0-1.79,0A.22.22,0,0,0,6,3.66l-.8,1.76H7.48a.22.22,0,0,0,.17-.14C7.76,4.72,7.87,4.17,8,3.63Zm4.94,0a1.07,1.07,0,0,0,0,.18c.11.43.23.87.33,1.3a.35.35,0,0,0,.4.32l1.55,0,.57,0c-.28-.62-.53-1.18-.8-1.74,0-.06-.16-.1-.25-.11-.37,0-.75,0-1.12,0ZM8.34,10H5.87c0,.17,0,.34,0,.5s.07.23.24.23H7.8c.65,0,.65,0,.58-.66Zm6.8.71c0-.15,0-.29,0-.43s-.07-.28-.27-.27H13.2c-.49,0-.53,0-.44.54a.23.23,0,0,0,.17.15ZM2.69,6a1,1,0,0,0,1,.81A1,1,0,0,0,4.55,6Zm8.15.06a1,1,0,0,0,1,.75,1,1,0,0,0,.94-.75Zm-5.48,0a1.07,1.07,0,0,0,1,.75,1.14,1.14,0,0,0,.94-.77H5.46Zm8.3,0a1,1,0,0,0,.86.78,1.06,1.06,0,0,0,1-.78Zm-5.54,0a1,1,0,0,0,1,.76A1,1,0,0,0,10,6.09H8.12Zm8.29,0a1,1,0,0,0,.83.77,1,1,0,0,0,.9-.72h-.87Z"/><path class="cls-1" d=""/><path class="cls-1" d="M18.56,10.8H17.37v-.54c0-.8,0-1.61,0-2.41a.24.24,0,0,1,.24-.28A1.73,1.73,0,0,0,18.56,7Z"/><path class="cls-1" d="M18.56,17h-.85v-.66c0-1.11,0-2.23,0-3.34,0-.22.06-.31.29-.29a3.37,3.37,0,0,0,.55,0Z"/><path class="cls-1" d="M5.07,10.8l-.68,0v-.43c0-.91,0-1.81,0-2.72a.41.41,0,0,1,.13-.25c.13-.13.27-.25.43-.39a1.66,1.66,0,0,0,1.36.67,1.71,1.71,0,0,0,1.4-.74A1.58,1.58,0,0,0,9,7.65a1.64,1.64,0,0,0,1.37-.75,1.67,1.67,0,0,0,2.79,0,1.56,1.56,0,0,0,1.38.75A1.7,1.7,0,0,0,16,7c.18.15.35.29.51.44a.36.36,0,0,1,.08.23c0,1,0,2,0,3,0,.17-.08.21-.23.2-.57-.06-.45,0-.45-.48V9.78a.4.4,0,0,0-.37-.45,2.8,2.8,0,0,0-.5,0H12.48c-.44,0-.52.06-.52.49,0,.27,0,.54,0,.8s0,.23-.2.23H9.39c-.21,0-.27-.09-.26-.28s0-.57,0-.85S9,9.3,8.79,9.3c-.55,0-1.1-.05-1.65-.05L5.47,9.3c-.32,0-.39.1-.4.42S5.07,10.42,5.07,10.8Z"/><path class="cls-1" d="M18.26,11.52a2.06,2.06,0,0,0,0,.25c0,.2-.07.27-.26.27H3.1c-.21,0-.29,0-.29-.28s.15-.24.32-.24H18.26Z"/><path class="cls-1" d="M13.05,5.4H10.5V3.56h1.92a.26.26,0,0,1,.18.12C12.75,4.25,12.89,4.81,13.05,5.4Z"/><path class="cls-1" d="M8,3.63c-.1.54-.21,1.09-.32,1.64a.22.22,0,0,1-.17.14H5.15L6,3.66a.22.22,0,0,1,.16-.09l1.79,0Z"/><path class="cls-1" d="M12.91,3.6h.68c.37,0,.75,0,1.12,0,.09,0,.22,0,.25.11.27.56.52,1.12.8,1.74l-.57,0-1.55,0a.35.35,0,0,1-.4-.32c-.1-.43-.22-.87-.33-1.3A1.07,1.07,0,0,1,12.91,3.6Z"/><path class="cls-1" d="M8.34,10l0,.06c.07.66.07.66-.58.66H6.11c-.17,0-.25,0-.24-.23s0-.33,0-.5Z"/><path class="cls-1" d="M15.14,10.75H12.93a.23.23,0,0,1-.17-.15c-.09-.49,0-.53.44-.54h1.67c.2,0,.29.06.27.27S15.14,10.6,15.14,10.75Z"/><path class="cls-1" d="M2.69,6H4.55a1,1,0,0,1-.86.81A1,1,0,0,1,2.69,6Z"/><path class="cls-1" d="M10.84,6.1h1.91a1,1,0,0,1-.94.75A1,1,0,0,1,10.84,6.1Z"/><path class="cls-1" d="M5.36,6.11l.1,0H7.31a1.14,1.14,0,0,1-.94.77A1.07,1.07,0,0,1,5.36,6.11Z"/><path class="cls-1" d="M13.66,6.08h1.88a1.06,1.06,0,0,1-1,.78A1,1,0,0,1,13.66,6.08Z"/><path class="cls-1" d="M8.12,6.09H10a1,1,0,0,1-.88.76A1,1,0,0,1,8.12,6.09Z"/><path class="cls-1" d="M16.41,6l.86,0h.87a1,1,0,0,1-.9.72A1,1,0,0,1,16.41,6Z"/><path class="cls-1" d="M15,14.93a.55.55,0,0,1-.63.58.62.62,0,0,1-.65-.61.64.64,0,0,1,.66-.6A.59.59,0,0,1,15,14.93Z"/><path class="cls-1" d="M9.07,15.15H8.56l.23-.61Z"/></svg>