<svg id="Layer_1" data-name="Layer 1" xmlns="http://www.w3.org/2000/svg" viewBox="0 0 20 20"><defs><style>.cls-1{fill:#fff;}</style></defs><path d="M.37,11.86H.79v-.43c0-1.61,0-3.21,0-4.82,0-.12,0-.23,0-.35a.62.62,0,0,1,.66-.67H5.67c.15,0,.2,0,.19-.19s0-.49,0-.73.06-.27.28-.28H8.62a.76.76,0,0,1,.72.54,4.21,4.21,0,0,1,.12.51c0,.09.06.13.15.13h4.71c.7,0,1.4,0,2.09,0a.62.62,0,0,1,.66.43c.22.55.46,1.09.68,1.64s.41,1.08.63,1.62a1,1,0,0,0,.18.27l.76.77a.8.8,0,0,1,.24.61c0,.72,0,1.43,0,2.15v.19c0,.35-.12.44-.47.45h-.86c-.11,0-.15,0-.21.14s-.27.43-.41.64a.46.46,0,0,0-.08.16h1.58c.14,0,.26,0,.29.19a.24.24,0,0,1-.23.27,2.47,2.47,0,0,1-.47,0H6.58l-3.94,0H1.06c-.14,0-.23-.07-.24-.22A.21.21,0,0,1,1,14.65h2.6l-.14-.15c-.13-.21-.27-.41-.39-.63a.17.17,0,0,0-.19-.13l-2.3-.05c-.24,0-.25,0-.25-.25V11.86Zm6.37-1H12c.15,0,.21,0,.19-.19a.56.56,0,0,1,0-.13l0-4.16c0-.35,0-.32-.31-.32H1.53c-.15,0-.2,0-.2.21,0,1.46,0,2.92,0,4.38,0,.14,0,.2.19.2Zm11.38,2.25h.7c.13,0,.17-.05.17-.17,0-.72,0-1.44,0-2.16a.26.26,0,0,0-.07-.17c-.16-.18-.34-.33-.48-.52a.8.8,0,0,0-.84-.38h-.2c-.27,0-.27,0-.31.24a.54.54,0,0,1-.47.47c-.23,0-.4-.17-.47-.46l0-.21s0-.1-.05-.12-.15-.25-.14-.41c0-.38,0-.77,0-1.16,0-.08,0-.17,0-.25-.19,0-.28,0-.3-.21s0-.4,0-.6V6.14s-.11,0-.18,0H12.83c-.13,0-.16.05-.15.17,0,.29,0,.58,0,.88,0,1.7,0,3.41,0,5.12v.83h1.14s.1-.06.12-.11a10.92,10.92,0,0,1,1.2-2.2,4.39,4.39,0,0,1,.48-.57.22.22,0,0,1,.21,0s.06.14.05.2a2.18,2.18,0,0,1-.18.38c-.3.56-.62,1.11-.92,1.68-.11.2-.18.42-.27.63l.05,0s.11-.09.15-.14a2.26,2.26,0,0,0,.11-.22,1.93,1.93,0,0,1,.78-.91,1.69,1.69,0,0,1,1.86.23A1.54,1.54,0,0,1,18.12,13.14Zm-16.78,0H2.77A.23.23,0,0,0,3,13a1.76,1.76,0,0,1,3.41.16h5.73s0-.06,0-.08c0-.52,0-1,0-1.56,0-.11-.05-.12-.13-.12l-1,0H5.59c-.26,0-.52,0-.78,0H1.58s-.09,0-.11,0-.12.08-.12.12C1.34,12.05,1.34,12.58,1.34,13.14Zm4.75,1.48h9.18c0-.06-.07-.09-.09-.13a7.22,7.22,0,0,1-.42-.65.2.2,0,0,0-.2-.13c-2.05,0-4.11,0-6.16,0-.55,0-1.1,0-1.65.09a.3.3,0,0,0-.21.13C6.38,14.15,6.24,14.38,6.09,14.62Zm10.29-.2a1.12,1.12,0,0,0,1.06-1,1.1,1.1,0,0,0-1.08-1.08,1.11,1.11,0,0,0-1.06,1.08A1.1,1.1,0,0,0,16.38,14.42Zm-10.62-1A1.09,1.09,0,0,0,4.7,12.36a1,1,0,0,0,0,2.08A1.07,1.07,0,0,0,5.76,13.42Zm11.1-6.51c-.11-.28-.2-.52-.3-.75,0,0,0,0,0,0a1.35,1.35,0,0,0-.58,0,6.26,6.26,0,0,1,.1.66c0,.21,0,.42,0,.63l.05,0C16.33,7.27,16.38,6.83,16.86,6.91ZM9,5.55A5,5,0,0,0,8.72,5a.28.28,0,0,0-.19-.12H7.91c-.1,0-.13,0-.13.13a3.12,3.12,0,0,0,0,.43.15.15,0,0,0,.08.11Zm8.86,3.7-.67-1.54V9.25Zm-1.39-.39h0c0,.25,0,.5,0,.75,0,.08.09.15.14.23,0-.07.11-.13.12-.2,0-.52,0-1,0-1.54A.13.13,0,0,0,16.53,8s-.09.1-.09.16C16.43,8.37,16.43,8.61,16.43,8.86Zm-10-3.32h.28V4.89c-.11,0-.26-.09-.27.1A5,5,0,0,0,6.38,5.54Zm1,0,0-.68c-.08,0-.19.07-.2.11,0,.2,0,.4,0,.61ZM.68,12.7h0a2.08,2.08,0,0,0,0,.25s0,.07.07.1S.81,13,.81,13a4.17,4.17,0,0,0,0-.5s0-.05-.07-.07-.06,0-.06.07A1.76,1.76,0,0,0,.68,12.7Zm16.4-5.09c-.06-.26-.13-.31-.25-.26Z"/><path class="cls-1" d="M18.12,13.14a1.54,1.54,0,0,0-.65-1.07,1.69,1.69,0,0,0-1.86-.23,1.93,1.93,0,0,0-.78.91,2.26,2.26,0,0,1-.11.22s-.1.09-.15.14l-.05,0c.09-.21.16-.43.27-.63.3-.57.62-1.12.92-1.68a2.18,2.18,0,0,0,.18-.38c0-.06,0-.18-.05-.2a.22.22,0,0,0-.21,0,4.39,4.39,0,0,0-.48.57A10.92,10.92,0,0,0,14,13s-.08.11-.12.11H12.69v-.83c0-1.71,0-3.42,0-5.12,0-.3,0-.59,0-.88,0-.12,0-.18.15-.17h2.59c.07,0,.14,0,.18,0V7c0,.2,0,.4,0,.6s.11.23.3.21c0,.08,0,.17,0,.25,0,.39,0,.78,0,1.16,0,.16,0,.32.14.41s0,.08.05.12l0,.21c.07.29.24.46.47.46a.54.54,0,0,0,.47-.47c0-.25,0-.24.31-.24h.2a.8.8,0,0,1,.84.38c.14.19.32.34.48.52a.26.26,0,0,1,.07.17c0,.72,0,1.44,0,2.16,0,.12,0,.18-.17.17ZM15.46,8.3h0V7.47a.63.63,0,0,0-.56-.61c-.49,0-1,0-1.46,0a.59.59,0,0,0-.53.56c0,.53,0,1.05,0,1.58a.69.69,0,0,0,.67.69l1.33,0a.51.51,0,0,0,.54-.56C15.47,8.86,15.46,8.58,15.46,8.3Zm3,3.16c-.19,0-.29.09-.3.26s.1.31.29.31a.27.27,0,0,0,.3-.27C18.72,11.57,18.61,11.47,18.42,11.46Z"/><path class="cls-1" d="M1.34,13.14c0-.56,0-1.09,0-1.63,0,0,.07-.09.12-.12s.07,0,.11,0H4.81c.26,0,.52,0,.78,0h5.47l1,0c.08,0,.13,0,.13.12,0,.52,0,1,0,1.56,0,0,0,0,0,.08H6.44A1.76,1.76,0,0,0,3,13a.23.23,0,0,1-.26.18Zm.46-.85a.16.16,0,0,0,.17.19.22.22,0,0,0,.25-.24A.24.24,0,0,0,2,12C1.9,12,1.81,12.07,1.8,12.29Zm.92,0A.24.24,0,0,0,2.5,12c-.14,0-.17.11-.17.22a.23.23,0,0,0,.2.26A.21.21,0,0,0,2.72,12.25Z"/><path class="cls-1" d="M6.09,14.62c.15-.24.29-.47.45-.69a.3.3,0,0,1,.21-.13c.55,0,1.1-.09,1.65-.09,2,0,4.11,0,6.16,0a.2.2,0,0,1,.2.13,7.22,7.22,0,0,0,.42.65s.05.07.09.13Z"/><path class="cls-1" d="M16.38,14.42a1.1,1.1,0,0,1-1.08-1,1.11,1.11,0,0,1,1.06-1.08,1.1,1.1,0,0,1,1.08,1.08A1.12,1.12,0,0,1,16.38,14.42Zm.69-1a.69.69,0,0,0-.69-.72.76.76,0,0,0-.72.71.76.76,0,0,0,.72.71A.71.71,0,0,0,17.07,13.38Z"/><path class="cls-1" d="M5.76,13.42a1.07,1.07,0,0,1-1.06,1,1,1,0,0,1,0-2.08A1.09,1.09,0,0,1,5.76,13.42Zm-1,.67a.7.7,0,0,0,.7-.68.72.72,0,0,0-.69-.71.72.72,0,0,0-.7.67A.69.69,0,0,0,4.71,14.09Z"/><path class="cls-1" d="M16.86,6.91c-.48-.08-.53.36-.77.55l-.05,0c0-.21,0-.42,0-.63a6.26,6.26,0,0,0-.1-.66,1.35,1.35,0,0,1,.58,0s0,0,0,0C16.66,6.39,16.75,6.63,16.86,6.91Z"/><path class="cls-1" d="M9,5.55H7.85a.15.15,0,0,1-.08-.11,3.12,3.12,0,0,1,0-.43c0-.08,0-.13.13-.13h.62A.28.28,0,0,1,8.72,5,5,5,0,0,1,9,5.55Z"/><path class="cls-1" d="M17.82,9.25h-.67V7.71Z"/><path class="cls-1" d="M16.43,8.86c0-.25,0-.49,0-.74,0-.06,0-.15.09-.16a.13.13,0,0,1,.17.14c0,.51,0,1,0,1.54,0,.07-.08.13-.12.2-.05-.08-.13-.15-.14-.23,0-.25,0-.5,0-.75Z"/><path class="cls-1" d="M6.38,5.54a5,5,0,0,1,0-.55c0-.19.16-.07.27-.1v.65Z"/><path class="cls-1" d="M7.33,5.53l-.24,0c0-.21,0-.41,0-.61,0,0,.12-.07.2-.11Z"/><path class="cls-1" d="M.68,12.7a1.76,1.76,0,0,1,0-.23s0-.05.06-.07.07,0,.07.07a4.17,4.17,0,0,1,0,.5s0,0-.06.08S.68,13,.68,13a2.08,2.08,0,0,1,0-.25Z"/><path class="cls-1" d="M17.08,7.61l-.25-.26C17,7.3,17,7.35,17.08,7.61Z"/><path d="M6.71,10.18H4.78a.74.74,0,0,1-.68-.41,1.12,1.12,0,0,1,0-1.22.22.22,0,0,0,0-.31.25.25,0,0,1,0-.39,1.1,1.1,0,0,1,.66-.37c.12,0,.16-.07.13-.18A.44.44,0,0,1,5,6.79a.5.5,0,0,1,.56,0,.25.25,0,0,0,.37,0,4.16,4.16,0,0,1,.39-.32.43.43,0,0,1,.48-.07,1.86,1.86,0,0,1,.41.33.19.19,0,0,0,.2.07l.19-.06A.45.45,0,0,1,8.28,7c.05.19.12.28.32.3s.21.12.31.19l.15.11c.08.05.17.09.25.15a.36.36,0,0,1,.12.54.22.22,0,0,0,0,.27A1.07,1.07,0,0,1,9,10.12a.92.92,0,0,1-.4.07l-.94,0H6.71Zm0-.48H8.5c.27,0,.33,0,.28-.32a2.2,2.2,0,0,0-.53-1A2,2,0,0,0,6,7.75,2.27,2.27,0,0,0,4.59,9.22c-.11.33,0,.47.35.48ZM7,7.15c0-.17-.13-.24-.24-.3s-.14,0-.19.06-.18.13-.13.27Zm-1.72.52.54-.31-.49-.24Zm2.71-.12c0-.18-.09-.44-.21-.44a1.53,1.53,0,0,0-.4.15ZM4.93,8c-.17,0-.44,0-.44.1a.77.77,0,0,0,.09.31Zm4,.55A1.33,1.33,0,0,0,9,8.23.17.17,0,0,0,9,8.09a.49.49,0,0,0-.24,0,.25.25,0,0,0,0,.15C8.78,8.33,8.84,8.4,8.91,8.51ZM8.47,8h.06l0-.28c-.06,0-.14,0-.16.08S8.45,7.89,8.47,8Z"/><path d="M15.46,8.3c0,.28,0,.56,0,.84a.51.51,0,0,1-.54.56l-1.33,0A.69.69,0,0,1,12.92,9c0-.53,0-1,0-1.58a.59.59,0,0,1,.53-.56c.48,0,1,0,1.46,0a.63.63,0,0,1,.56.61V8.3Zm-1.5,0h0V7.68c0-.38,0-.38-.39-.37-.14,0-.21.06-.2.2,0,.49,0,1,0,1.48a.17.17,0,0,0,.17.19l.21,0c.13,0,.18,0,.18-.17S14,8.51,14,8.26Zm.48,0h0v.56c0,.42-.09.36.38.37C15,9.21,15,9.16,15,9c0-.44,0-.88,0-1.32s.08-.38-.39-.38c-.1,0-.14,0-.14.14Z"/><path d="M18.42,11.46c.19,0,.3.11.29.3a.27.27,0,0,1-.3.27c-.19,0-.29-.11-.29-.31S18.23,11.46,18.42,11.46Z"/><path d="M1.8,12.29c0-.22.1-.33.23-.33a.24.24,0,0,1,.19.28.22.22,0,0,1-.25.24A.16.16,0,0,1,1.8,12.29Z"/><path d="M2.72,12.25a.21.21,0,0,1-.19.23.23.23,0,0,1-.2-.26c0-.11,0-.22.17-.22A.24.24,0,0,1,2.72,12.25Z"/><path d="M17.07,13.38a.71.71,0,0,1-.69.7.76.76,0,0,1-.72-.71.76.76,0,0,1,.72-.71A.69.69,0,0,1,17.07,13.38Zm-.61.2a.57.57,0,0,0,.12-.17.2.2,0,0,0-.19-.22c-.13,0-.2.08-.19.2S16.28,13.58,16.46,13.58Z"/><path d="M4.71,14.09A.69.69,0,0,1,4,13.37a.72.72,0,0,1,.7-.67.72.72,0,0,1,.69.71A.7.7,0,0,1,4.71,14.09Zm.08-.49s.13-.11.13-.19a.19.19,0,0,0-.21-.2c-.12,0-.17.08-.17.19S4.61,13.58,4.79,13.6Z"/><path class="cls-1" d="M14,8.26c0,.25,0,.51,0,.77s-.05.19-.18.17l-.21,0A.17.17,0,0,1,13.41,9c0-.49,0-1,0-1.48,0-.14.06-.19.2-.2.38,0,.38,0,.39.37v.58Z"/><path class="cls-1" d="M14.44,8.28V7.46c0-.1,0-.14.14-.14.47,0,.4,0,.39.38S15,8.58,15,9c0,.14,0,.19-.17.19-.47,0-.37,0-.38-.37V8.28Z"/><path class="cls-1" d="M16.46,13.58c-.18,0-.26-.06-.26-.19s.06-.19.19-.2a.2.2,0,0,1,.19.22A.57.57,0,0,1,16.46,13.58Z"/><path class="cls-1" d="M4.79,13.6c-.18,0-.26-.08-.25-.2s0-.19.17-.19a.19.19,0,0,1,.21.2C4.92,13.49,4.83,13.55,4.79,13.6Z"/><path d="M6.05,9.24a.19.19,0,0,1-.21.2c-.14,0-.18-.11-.18-.23s0-.21.19-.21A.21.21,0,0,1,6.05,9.24Z"/><path d="M6.72,8c.13,0,.22.09.19.2a.36.36,0,0,1-.21.21c-.09,0-.22-.12-.21-.22S6.61,8,6.72,8Z"/><path d="M5.74,8.36c.18,0,.28.07.27.18s-.11.14-.17.21-.17-.13-.21-.21S5.71,8.41,5.74,8.36Z"/><path d="M5.43,8.82s.15.11.14.13a2.9,2.9,0,0,1-.19.29c-.07-.07-.16-.13-.18-.21S5.27,8.84,5.43,8.82Z"/></svg>