<svg id="Layer_1" data-name="Layer 1" xmlns="http://www.w3.org/2000/svg" viewBox="0 0 20 20"><defs><style>.cls-1{fill:#fff;}</style></defs><path class="cls-1" d="M10,15.58h0V19a.31.31,0,0,0,.3.34.32.32,0,0,0,.32-.34V12.2a.32.32,0,0,0-.28-.34.29.29,0,0,0-.31.33Zm0-4.5h0c0-.13,0-.26,0-.38A1.81,1.81,0,0,0,8.57,9.08.42.42,0,0,0,8,9.41a1.71,1.71,0,0,0,.12,1,1.65,1.65,0,0,0,1.44,1.12c.3,0,.43-.09.43-.37Zm.56.06c0,.32,0,.38.21.41a1,1,0,0,0,.39,0,1.78,1.78,0,0,0,1.15-.87,2.39,2.39,0,0,0,.29-1.2c0-.22-.23-.46-.41-.41a2,2,0,0,0-1.12.63A2.54,2.54,0,0,0,10.56,11.14ZM8,6.9a2.11,2.11,0,0,0,.78,1.63,1.09,1.09,0,0,0,1,.19A.2.2,0,0,0,10,8.5a2.54,2.54,0,0,0,0-.68A1.74,1.74,0,0,0,8.68,6.36c-.41-.09-.62,0-.64.45Zm2.55,1.45c0,.35.07.43.39.41A1.58,1.58,0,0,0,12.25,8a2.56,2.56,0,0,0,.3-1.12c0-.42-.22-.63-.62-.49l0,0a1.81,1.81,0,0,0-1,.83A2.86,2.86,0,0,0,10.59,8.35ZM10,5.48h0A4.55,4.55,0,0,0,10,5a1.57,1.57,0,0,0-.57-1,2.85,2.85,0,0,0-.76-.32.32.32,0,0,0-.42.27,2.15,2.15,0,0,0,0,.62A1.73,1.73,0,0,0,9.19,6,.94.94,0,0,0,9.83,6a.23.23,0,0,0,.2-.27Zm.52.09a1.1,1.1,0,0,0,0,.3c0,.06.06.15.12.16a.62.62,0,0,0,.38,0,1.9,1.9,0,0,0,1.31-2.12.37.37,0,0,0-.5-.32l-.24.08a1.69,1.69,0,0,0-.84.72A2.46,2.46,0,0,0,10.55,5.57Zm.55-3.09a2,2,0,0,0-.38-1.11c-.1-.13-.24-.23-.33-.36s-.13-.08-.21,0a1.79,1.79,0,0,0-.51.73,1.83,1.83,0,0,0-.1,1,1.26,1.26,0,0,0,.61,1,.33.33,0,0,0,.22,0A.81.81,0,0,0,11,3.2C11,3,11.05,2.72,11.1,2.48ZM6.69,6.63a.3.3,0,0,0-.29.43c.08.15.18.29.26.43.26.43.51.87.77,1.29.15.23.21.24.46.12s.22-.17.1-.36l-.43-.68c-.2-.34-.39-.69-.58-1A.32.32,0,0,0,6.69,6.63ZM12.55,8.7a.58.58,0,0,0,.08.14,2.12,2.12,0,0,1,.2.12c.13.09.21,0,.28-.08s.23-.44.36-.66c.23-.39.47-.77.7-1.15a.49.49,0,0,0,.06-.23A.25.25,0,0,0,14,6.62a.35.35,0,0,0-.36.13,1.81,1.81,0,0,0-.19.29l-.73,1.3C12.68,8.46,12.62,8.58,12.55,8.7Zm-6-4.3a.78.78,0,0,0,0,.12c.07.14.16.28.24.41.22.38.44.77.67,1.14.1.18.22.2.39.09L8,6.08c.13-.07.12-.17.05-.28l-.9-1.54a.76.76,0,0,0-.08-.11.24.24,0,0,0-.29-.09A.35.35,0,0,0,6.59,4.4ZM14,4.29a.87.87,0,0,0-.19-.23.26.26,0,0,0-.31,0,.7.7,0,0,0-.13.17l-.83,1.52a.24.24,0,0,0,.09.37c.21.14.29.13.43-.09l.06-.1.78-1.44C14,4.46,14,4.39,14,4.29Zm-5.83-1c.32,0,.44-.22.29-.47l-.57-.91a.27.27,0,0,0-.37-.11.28.28,0,0,0-.14.39c.19.32.38.64.58.95C8,3.24,8.13,3.27,8.2,3.32Zm4.7-1.54a.31.31,0,0,0-.28.17c-.17.3-.35.6-.51.91s-.11.26.12.37h0a.19.19,0,0,0,.29-.08l.61-1A.29.29,0,0,0,12.9,1.78ZM10,9.6v.21a.38.38,0,0,0,.25.28c.1,0,.23-.09.26-.23a3.43,3.43,0,0,0,.06-.56A.3.3,0,0,0,10.27,9a.4.4,0,0,0-.25.35A2.27,2.27,0,0,0,10,9.6Zm0-2.79a2.64,2.64,0,0,0,0,.29.34.34,0,0,0,.24.26.2.2,0,0,0,.23-.12,1.15,1.15,0,0,0,.06-.71c-.06-.22-.26-.26-.44-.11S10,6.67,10,6.81Zm2.05,5.53c0-.15-.15-.28-.26-.24a.78.78,0,0,0-.48.49.21.21,0,0,0,0,.19.19.19,0,0,0,.18,0,2.42,2.42,0,0,0,.42-.29S12,12.38,12.06,12.34Zm-3.33,0c0,.06.09.15.12.15A.18.18,0,0,0,9,12.3s-.09-.09-.13-.14Z"/><path d="M10,15.58V12.19a.29.29,0,0,1,.31-.33.32.32,0,0,1,.28.34V19a.32.32,0,0,1-.32.34A.31.31,0,0,1,10,19V15.58Z"/><path d="M10,11.08v.1c0,.28-.13.39-.43.37a1.65,1.65,0,0,1-1.44-1.12,1.71,1.71,0,0,1-.12-1,.42.42,0,0,1,.56-.33A1.81,1.81,0,0,1,10,10.7c0,.12,0,.25,0,.38Z"/><path d="M10.56,11.14a2.54,2.54,0,0,1,.51-1.46,2,2,0,0,1,1.12-.63c.18-.05.41.19.41.41a2.39,2.39,0,0,1-.29,1.2,1.78,1.78,0,0,1-1.15.87,1,1,0,0,1-.39,0C10.59,11.52,10.56,11.46,10.56,11.14Z"/><path d="M8,6.9V6.81c0-.42.23-.54.64-.45A1.74,1.74,0,0,1,10,7.82a2.54,2.54,0,0,1,0,.68.2.2,0,0,1-.18.22,1.09,1.09,0,0,1-1-.19A2.11,2.11,0,0,1,8,6.9Z"/><path d="M10.59,8.35a2.86,2.86,0,0,1,.28-1.16,1.81,1.81,0,0,1,1-.83l0,0c.4-.14.66.07.62.49A2.56,2.56,0,0,1,12.25,8,1.58,1.58,0,0,1,11,8.76C10.66,8.78,10.59,8.7,10.59,8.35Z"/><path d="M10,5.48v.29a.23.23,0,0,1-.2.27A.94.94,0,0,1,9.19,6a1.73,1.73,0,0,1-1-1.45,2.15,2.15,0,0,1,0-.62.32.32,0,0,1,.42-.27A2.85,2.85,0,0,1,9.43,4,1.57,1.57,0,0,1,10,5a4.55,4.55,0,0,1,0,.52Z"/><path d="M10.55,5.57a2.46,2.46,0,0,1,.25-1.15,1.69,1.69,0,0,1,.84-.72l.24-.08a.37.37,0,0,1,.5.32,1.9,1.9,0,0,1-1.31,2.12.62.62,0,0,1-.38,0c-.06,0-.11-.1-.12-.16A1.1,1.1,0,0,1,10.55,5.57Z"/><path d="M11.1,2.48c0,.24-.08.48-.15.72a.81.81,0,0,1-.55.56.33.33,0,0,1-.22,0,1.26,1.26,0,0,1-.61-1,1.83,1.83,0,0,1,.1-1A1.79,1.79,0,0,1,10.18,1c.08-.07.13-.1.21,0s.23.23.33.36A2,2,0,0,1,11.1,2.48Z"/><path d="M6.69,6.63a.32.32,0,0,1,.29.2c.19.34.38.69.58,1L8,8.54c.12.19.1.26-.1.36s-.31.11-.46-.12c-.26-.42-.51-.86-.77-1.29-.08-.14-.18-.28-.26-.43A.3.3,0,0,1,6.69,6.63Z"/><path d="M12.55,8.7c.07-.12.13-.24.19-.36L13.47,7a1.81,1.81,0,0,1,.19-.29A.35.35,0,0,1,14,6.62a.25.25,0,0,1,.21.22.49.49,0,0,1-.06.23c-.23.38-.47.76-.7,1.15-.13.22-.24.44-.36.66s-.15.17-.28.08a2.12,2.12,0,0,0-.2-.12A.58.58,0,0,1,12.55,8.7Z"/><path d="M6.59,4.4a.35.35,0,0,1,.23-.34.24.24,0,0,1,.29.09.76.76,0,0,1,.08.11l.9,1.54c.07.11.08.21-.05.28l-.1.08c-.17.11-.29.09-.39-.09-.23-.37-.45-.76-.67-1.14-.08-.13-.17-.27-.24-.41A.78.78,0,0,1,6.59,4.4Z"/><path d="M14,4.29c0,.1-.07.17-.1.23L13.15,6l-.06.1c-.14.22-.22.23-.43.09a.24.24,0,0,1-.09-.37l.83-1.52a.7.7,0,0,1,.13-.17.26.26,0,0,1,.31,0A.87.87,0,0,1,14,4.29Z"/><path d="M8.2,3.32c-.07,0-.17-.08-.21-.15-.2-.31-.39-.63-.58-.95a.28.28,0,0,1,.14-.39.27.27,0,0,1,.37.11l.57.91C8.64,3.1,8.52,3.29,8.2,3.32Z"/><path d="M12.9,1.78a.29.29,0,0,1,.26.42l-.61,1a.19.19,0,0,1-.29.08h0c-.23-.11-.25-.14-.12-.37s.34-.61.51-.91A.31.31,0,0,1,12.9,1.78Z"/><path d="M10,9.6a2.27,2.27,0,0,1,0-.24A.4.4,0,0,1,10.27,9a.3.3,0,0,1,.33.29,3.43,3.43,0,0,1-.06.56c0,.14-.16.25-.26.23A.38.38,0,0,1,10,9.81Z"/><path d="M10,6.81c0-.14,0-.28.11-.39s.38-.11.44.11a1.15,1.15,0,0,1-.06.71.2.2,0,0,1-.23.12A.34.34,0,0,1,10,7.1,2.64,2.64,0,0,1,10,6.81Z"/><path d="M12.06,12.34s-.05.13-.1.17a2.42,2.42,0,0,1-.42.29.19.19,0,0,1-.18,0,.21.21,0,0,1,0-.19.78.78,0,0,1,.48-.49C11.91,12.06,12.06,12.19,12.06,12.34Z"/><path d="M8.73,12.34l.16-.18c0,.05.13.1.13.14a.18.18,0,0,1-.17.19S8.78,12.4,8.73,12.34Z"/></svg>